<?xml version="1.0" encoding="UTF-8" standalone="no"?>
<svg
   xmlns:dc="http://purl.org/dc/elements/1.1/"
   xmlns:cc="http://creativecommons.org/ns#"
   xmlns:rdf="http://www.w3.org/1999/02/22-rdf-syntax-ns#"
   xmlns:svg="http://www.w3.org/2000/svg"
   xmlns="http://www.w3.org/2000/svg"
   viewBox="0 0 957.6951 318.64105"
   height="318.64105"
   width="957.69507"
   xml:space="preserve"
   id="svg2"
   version="1.1"><metadata
     id="metadata8"><rdf:RDF><cc:Work
         rdf:about=""><dc:format>image/svg+xml</dc:format><dc:type
           rdf:resource="http://purl.org/dc/dcmitype/StillImage" /><dc:title></dc:title></cc:Work></rdf:RDF></metadata><defs
     id="defs6"><clipPath
       id="clipPath18"
       clipPathUnits="userSpaceOnUse"><path
         id="path16"
         d="M 0,563.863 H 1093.561 V 0 H 0 Z" /></clipPath><clipPath
       id="clipPath50"
       clipPathUnits="userSpaceOnUse"><path
         id="path48"
         d="M 0,563.863 H 1093.561 V 0 H 0 Z" /></clipPath><clipPath
       id="clipPath74"
       clipPathUnits="userSpaceOnUse"><path
         id="path72"
         d="M 0,563.863 H 1093.561 V 0 H 0 Z" /></clipPath><clipPath
       id="clipPath114"
       clipPathUnits="userSpaceOnUse"><path
         id="path112"
         d="M 0,563.863 H 1093.561 V 0 H 0 Z" /></clipPath><clipPath
       id="clipPath170"
       clipPathUnits="userSpaceOnUse"><path
         id="path168"
         d="M 0,563.863 H 1093.561 V 0 H 0 Z" /></clipPath><clipPath
       id="clipPath202"
       clipPathUnits="userSpaceOnUse"><path
         id="path200"
         d="M 0,563.863 H 1093.561 V 0 H 0 Z" /></clipPath></defs><g
     transform="matrix(1.3333333,0,0,-1.3333333,-250.19346,501.62452)"
     id="g10"><g
       id="g12"><g
         clip-path="url(#clipPath18)"
         id="g14"><g
           transform="translate(1093.5609,6.0002)"
           id="g20"><path
             id="path22"
             style="fill:none;stroke:#00adef;stroke-width:1;stroke-linecap:butt;stroke-linejoin:miter;stroke-miterlimit:10;stroke-dasharray:none;stroke-opacity:1"
             d="M 0,0 V -6 H -6" /></g><g
           transform="translate(1075.6761,2e-4)"
           id="g24"><path
             id="path26"
             style="fill:none;stroke:#00adef;stroke-width:1;stroke-linecap:butt;stroke-linejoin:miter;stroke-miterlimit:10;stroke-dasharray:11.885, 11.885;stroke-dashoffset:0;stroke-opacity:1"
             d="M 0,0 H -1063.733" /></g><g
           transform="translate(6.0003,2e-4)"
           id="g28"><path
             id="path30"
             style="fill:none;stroke:#00adef;stroke-width:1;stroke-linecap:butt;stroke-linejoin:miter;stroke-miterlimit:10;stroke-dasharray:none;stroke-opacity:1"
             d="M 0,0 H -6 V 6" /></g><g
           transform="translate(3e-4,17.7102)"
           id="g32"><path
             id="path34"
             style="fill:none;stroke:#00adef;stroke-width:1;stroke-linecap:butt;stroke-linejoin:miter;stroke-miterlimit:10;stroke-dasharray:11.71, 11.71;stroke-dashoffset:0;stroke-opacity:1"
             d="M 0,0 V 158.08" /></g><g
           transform="translate(3e-4,181.6447)"
           id="g36"><path
             id="path38"
             style="fill:none;stroke:#00adef;stroke-width:1;stroke-linecap:butt;stroke-linejoin:miter;stroke-miterlimit:10;stroke-dasharray:none;stroke-opacity:1"
             d="M 0,0 V 6 H 6" /></g></g></g><g
       id="g44"><g
         clip-path="url(#clipPath50)"
         id="g46"><g
           transform="translate(1087.5609,187.6447)"
           id="g52"><path
             id="path54"
             style="fill:none;stroke:#00adef;stroke-width:1;stroke-linecap:butt;stroke-linejoin:miter;stroke-miterlimit:10;stroke-dasharray:none;stroke-opacity:1"
             d="M 0,0 H 6 V -6" /></g><g
           transform="translate(1093.5609,169.9357)"
           id="g56"><path
             id="path58"
             style="fill:none;stroke:#00adef;stroke-width:1;stroke-linecap:butt;stroke-linejoin:miter;stroke-miterlimit:10;stroke-dasharray:11.71, 11.71;stroke-dashoffset:0;stroke-opacity:1"
             d="M 0,0 V -158.081" /></g><g
           transform="translate(1093.5609,382.218)"
           id="g60"><path
             id="path62"
             style="fill:none;stroke:#00adef;stroke-width:1;stroke-linecap:butt;stroke-linejoin:miter;stroke-miterlimit:10;stroke-dasharray:none;stroke-opacity:1"
             d="M 0,0 V -6 H -6" /></g></g></g><g
       id="g68"><g
         clip-path="url(#clipPath74)"
         id="g70"><g
           transform="translate(6.0003,376.218)"
           id="g76"><path
             id="path78"
             style="fill:none;stroke:#00adef;stroke-width:1;stroke-linecap:butt;stroke-linejoin:miter;stroke-miterlimit:10;stroke-dasharray:none;stroke-opacity:1"
             d="M 0,0 H -6 V 6" /></g><g
           transform="translate(3e-4,393.9279)"
           id="g80"><path
             id="path82"
             style="fill:none;stroke:#00adef;stroke-width:1;stroke-linecap:butt;stroke-linejoin:miter;stroke-miterlimit:10;stroke-dasharray:11.71, 11.71;stroke-dashoffset:0;stroke-opacity:1"
             d="M 0,0 V 158.08" /></g><g
           transform="translate(3e-4,557.8625)"
           id="g84"><path
             id="path86"
             style="fill:none;stroke:#00adef;stroke-width:1;stroke-linecap:butt;stroke-linejoin:miter;stroke-miterlimit:10;stroke-dasharray:none;stroke-opacity:1"
             d="M 0,0 V 6 H 6" /></g><g
           transform="translate(17.8851,563.8625)"
           id="g88"><path
             id="path90"
             style="fill:none;stroke:#00adef;stroke-width:1;stroke-linecap:butt;stroke-linejoin:miter;stroke-miterlimit:10;stroke-dasharray:11.885, 11.885;stroke-dashoffset:0;stroke-opacity:1"
             d="M 0,0 H 1063.733" /></g><g
           transform="translate(1087.5609,563.8625)"
           id="g92"><path
             id="path94"
             style="fill:none;stroke:#00adef;stroke-width:1;stroke-linecap:butt;stroke-linejoin:miter;stroke-miterlimit:10;stroke-dasharray:none;stroke-opacity:1"
             d="M 0,0 H 6 V -6" /></g><g
           transform="translate(1093.5609,546.1535)"
           id="g96"><path
             id="path98"
             style="fill:none;stroke:#00adef;stroke-width:1;stroke-linecap:butt;stroke-linejoin:miter;stroke-miterlimit:10;stroke-dasharray:11.71, 11.71;stroke-dashoffset:0;stroke-opacity:1"
             d="M 0,0 V -158.081" /></g><g
           transform="translate(911.9163,2e-4)"
           id="g100"><path
             id="path102"
             style="fill:none;stroke:#00adef;stroke-width:1;stroke-linecap:butt;stroke-linejoin:miter;stroke-miterlimit:10;stroke-dasharray:none;stroke-opacity:1"
             d="M 0,0 H -6 V 6" /></g></g></g><g
       id="g108"><g
         clip-path="url(#clipPath114)"
         id="g110"><g
           transform="translate(905.9163,557.8625)"
           id="g116"><path
             id="path118"
             style="fill:none;stroke:#00adef;stroke-width:1;stroke-linecap:butt;stroke-linejoin:miter;stroke-miterlimit:10;stroke-dasharray:none;stroke-opacity:1"
             d="M 0,0 V 6 H 6" /></g><g
           transform="translate(923.6263,563.8625)"
           id="g120"><path
             id="path122"
             style="fill:none;stroke:#00adef;stroke-width:1;stroke-linecap:butt;stroke-linejoin:miter;stroke-miterlimit:10;stroke-dasharray:11.71, 11.71;stroke-dashoffset:0;stroke-opacity:1"
             d="M 0,0 H 158.08" /></g><g
           transform="translate(1087.5609,563.8625)"
           id="g124"><path
             id="path126"
             style="fill:none;stroke:#00adef;stroke-width:1;stroke-linecap:butt;stroke-linejoin:miter;stroke-miterlimit:10;stroke-dasharray:none;stroke-opacity:1"
             d="M 0,0 H 6 V -6" /></g><g
           transform="translate(1093.5609,545.5998)"
           id="g128"><path
             id="path130"
             style="fill:none;stroke:#00adef;stroke-width:1;stroke-linecap:butt;stroke-linejoin:miter;stroke-miterlimit:10;stroke-dasharray:12.264, 12.264;stroke-dashoffset:0;stroke-opacity:1"
             d="M 0,0 V -533.468" /></g><g
           transform="translate(1093.5609,6.0002)"
           id="g132"><path
             id="path134"
             style="fill:none;stroke:#00adef;stroke-width:1;stroke-linecap:butt;stroke-linejoin:miter;stroke-miterlimit:10;stroke-dasharray:none;stroke-opacity:1"
             d="M 0,0 V -6 H -6" /></g><g
           transform="translate(1075.851,2e-4)"
           id="g136"><path
             id="path138"
             style="fill:none;stroke:#00adef;stroke-width:1;stroke-linecap:butt;stroke-linejoin:miter;stroke-miterlimit:10;stroke-dasharray:11.71, 11.71;stroke-dashoffset:0;stroke-opacity:1"
             d="M 0,0 H -158.08" /></g><g
           transform="translate(6.0003,2e-4)"
           id="g140"><path
             id="path142"
             style="fill:none;stroke:#00adef;stroke-width:1;stroke-linecap:butt;stroke-linejoin:miter;stroke-miterlimit:10;stroke-dasharray:none;stroke-opacity:1"
             d="M 0,0 H -6 V 6" /></g><g
           transform="translate(3e-4,18.2639)"
           id="g144"><path
             id="path146"
             style="fill:none;stroke:#00adef;stroke-width:1;stroke-linecap:butt;stroke-linejoin:miter;stroke-miterlimit:10;stroke-dasharray:12.264, 12.264;stroke-dashoffset:0;stroke-opacity:1"
             d="M 0,0 V 533.468" /></g><g
           transform="translate(3e-4,557.8625)"
           id="g148"><path
             id="path150"
             style="fill:none;stroke:#00adef;stroke-width:1;stroke-linecap:butt;stroke-linejoin:miter;stroke-miterlimit:10;stroke-dasharray:none;stroke-opacity:1"
             d="M 0,0 V 6 H 6" /></g><g
           transform="translate(17.7103,563.8625)"
           id="g152"><path
             id="path154"
             style="fill:none;stroke:#00adef;stroke-width:1;stroke-linecap:butt;stroke-linejoin:miter;stroke-miterlimit:10;stroke-dasharray:11.71, 11.71;stroke-dashoffset:0;stroke-opacity:1"
             d="M 0,0 H 158.08" /></g><g
           transform="translate(181.6449,563.8625)"
           id="g156"><path
             id="path158"
             style="fill:none;stroke:#00adef;stroke-width:1;stroke-linecap:butt;stroke-linejoin:miter;stroke-miterlimit:10;stroke-dasharray:none;stroke-opacity:1"
             d="M 0,0 H 6 V -6" /></g></g></g><g
       id="g164"><g
         clip-path="url(#clipPath170)"
         id="g166"><g
           transform="translate(187.6449,6.0002)"
           id="g172"><path
             id="path174"
             style="fill:none;stroke:#00adef;stroke-width:1;stroke-linecap:butt;stroke-linejoin:miter;stroke-miterlimit:10;stroke-dasharray:none;stroke-opacity:1"
             d="M 0,0 V -6 H -6" /></g><g
           transform="translate(169.9349,2e-4)"
           id="g176"><path
             id="path178"
             style="fill:none;stroke:#00adef;stroke-width:1;stroke-linecap:butt;stroke-linejoin:miter;stroke-miterlimit:10;stroke-dasharray:11.71, 11.71;stroke-dashoffset:0;stroke-opacity:1"
             d="M 0,0 H -158.08" /></g></g></g><g
       id="g196"><g
         clip-path="url(#clipPath202)"
         id="g198"><g
           transform="translate(812.6224,222.0676)"
           id="g204"><path
             id="path206"
             style="fill:#fee702;fill-opacity:1;fill-rule:nonzero;stroke:none"
             d="m 0,0 c -32.696,0 -59.298,26.602 -59.298,59.299 0,32.696 26.602,59.298 59.298,59.298 32.696,0 59.296,-26.602 59.296,-59.298 C 59.296,26.602 32.696,0 0,0 m 0,152.595 c -51.443,0 -93.295,-41.853 -93.295,-93.296 0,-51.444 41.852,-93.296 93.295,-93.296 51.442,0 93.294,41.852 93.294,93.296 0,51.443 -41.852,93.296 -93.294,93.296" /></g><g
           transform="translate(475.8206,371.9894)"
           id="g208"><path
             id="path210"
             style="fill:#231f20;fill-opacity:1;fill-rule:nonzero;stroke:none"
             d="m 0,0 c -3.128,2.728 -7.268,4.229 -11.656,4.229 -4.432,0 -8.612,-1.529 -11.769,-4.303 -3.586,-3.152 -5.481,-7.544 -5.481,-12.704 v -87.085 c 0,-34.582 -26.537,-50.333 -51.194,-50.333 -24.657,0 -51.196,15.751 -51.196,50.333 v 87.085 c 0,4.947 -1.917,9.151 -5.543,12.158 -3.148,2.611 -7.308,4.05 -11.713,4.05 -4.358,0 -8.474,-1.412 -11.591,-3.976 -3.545,-2.916 -5.498,-7.167 -5.498,-11.968 v -87.349 c 0,-55.115 43.033,-83.949 85.541,-83.949 21.83,0 43.204,7.759 58.638,21.292 17.601,15.429 26.903,37.095 26.903,62.657 v 87.349 C 5.441,-7.431 3.561,-3.104 0,0" /></g><g
           transform="translate(674.721,375.007)"
           id="g212"><path
             id="path214"
             style="fill:#231f20;fill-opacity:1;fill-rule:nonzero;stroke:none"
             d="m 0,0 c -6.08,0 -11.662,-3.279 -15.316,-8.999 l -58.191,-91.374 -58.576,91.223 c -3.303,5.78 -8.93,9.228 -15.066,9.228 -7.945,0 -16.387,-6.216 -16.387,-17.732 v -152.932 c 0,-5.085 1.855,-9.416 5.366,-12.524 3.096,-2.742 7.194,-4.252 11.541,-4.252 4.347,0 8.445,1.51 11.541,4.252 3.512,3.108 5.367,7.439 5.367,12.524 v 95.926 l 40.711,-63.465 c 3.17,-5.853 8.88,-9.343 15.295,-9.343 6.378,0 12.149,3.467 15.451,9.279 l 40.754,63.732 v -96.129 c 0,-5.085 1.856,-9.416 5.366,-12.524 3.097,-2.742 7.196,-4.252 11.542,-4.252 4.347,0 8.446,1.51 11.541,4.252 3.512,3.108 5.368,7.439 5.368,12.524 V -17.654 C 16.307,-7.59 9.296,0 0,0" /></g><g
           transform="translate(881.1605,163.4016)"
           id="g216"><path
             id="path218"
             style="fill:#231f20;fill-opacity:1;fill-rule:nonzero;stroke:none"
             d="m 0,0 c 0,8.947 -7.254,16.2 -16.201,16.2 -2.006,0 -3.925,-0.367 -5.698,-1.033 l -10e-4,0.002 c -1.09,-0.436 -2.189,-0.857 -3.294,-1.264 -13.472,-4.953 -28.015,-7.667 -43.185,-7.667 -14.876,0 -29.151,2.605 -42.404,7.374 -1.404,0.505 -2.796,1.034 -4.176,1.588 l -0.006,-0.013 c -1.861,0.745 -3.89,1.159 -6.017,1.159 -8.948,0 -16.202,-7.253 -16.202,-16.201 0,-6.766 4.15,-12.56 10.041,-14.985 l -0.001,-10e-4 c 0.134,-0.054 0.269,-0.104 0.403,-0.157 0.065,-0.025 0.13,-0.053 0.195,-0.077 1.386,-0.551 2.78,-1.085 4.186,-1.597 16.851,-6.14 35.032,-9.492 53.981,-9.492 18.896,0 37.027,3.332 53.84,9.44 1.578,0.574 3.145,1.171 4.7,1.793 l -0.009,0.024 C -4.059,-12.437 0,-6.692 0,0" /></g><g
           transform="translate(280.2151,359.9572)"
           id="g220"><path
             id="path222"
             style="fill:#231f20;fill-opacity:1;fill-rule:nonzero;stroke:none"
             d="m 0,0 c -0.008,0.064 -0.016,0.128 -0.026,0.194 -0.711,8.499 -7.915,15.139 -16.454,15.139 -0.067,0 -0.132,-0.002 -0.201,-0.006 -0.068,0.004 -0.135,0.006 -0.203,0.006 l -1.025,-0.021 -0.072,-0.062 C -25.074,14.605 -30.991,9.433 -32.575,2.497 l -0.431,-0.378 v -105.52 c 0,-22.248 -22.417,-37.194 -43.354,-37.194 v -0.001 c -8.956,-0.025 -16.21,-7.293 -16.21,-16.255 0,-8.962 7.254,-16.23 16.21,-16.255 v -0.002 c 0.01,0 0.02,0.001 0.031,0.001 0,0 0.011,-0.001 0.016,-0.001 0.016,0 0.032,0.002 0.048,0.002 21.088,0.026 42.346,8.775 56.883,23.418 12.653,12.748 19.552,29.193 19.426,46.287 V -0.792 Z" /></g></g></g></g></svg>