<?xml version="1.0" encoding="UTF-8" standalone="no"?>
<svg
   xmlns:dc="http://purl.org/dc/elements/1.1/"
   xmlns:cc="http://creativecommons.org/ns#"
   xmlns:rdf="http://www.w3.org/1999/02/22-rdf-syntax-ns#"
   xmlns:svg="http://www.w3.org/2000/svg"
   xmlns="http://www.w3.org/2000/svg"
   xmlns:xlink="http://www.w3.org/1999/xlink"
   style="fill:#737373"
   height="129"
   width="603.90002"
   id="svg7923"
   version="1.1"
   viewBox="0 0 603.90002 129">
  <metadata
     id="metadata7929">
    <rdf:RDF>
      <cc:Work
         rdf:about="">
        <dc:format>image/svg+xml</dc:format>
        <dc:type
           rdf:resource="http://purl.org/dc/dcmitype/StillImage" />
        <dc:title>Microsoft Logo</dc:title>
      </cc:Work>
    </rdf:RDF>
  </metadata>
  <defs
     id="defs7927" />
  <title
     id="title7908">Microsoft Logo</title>
  <path
     id="path7910"
     d="m 213.2,74.3 -3.6,10.2 h -0.3 c -0.6,-2.3 -1.7,-5.8 -3.5,-10 L 186.5,26 h -18.9 v 77.3 h 12.5 V 55.6 c 0,-3 0,-6.4 -0.1,-10.6 -0.1,-2.1 -0.3,-3.7 -0.4,-4.9 h 0.3 c 0.6,3 1.3,5.2 1.8,6.6 l 23.2,56.4 h 8.8 l 23,-56.9 c 0.5,-1.3 1,-3.9 1.5,-6.1 h 0.3 c -0.3,5.7 -0.5,10.8 -0.6,13.9 v 49 h 13.3 V 25.8 H 233 Z m 50.6,-26.7 h 13 V 103 h -13 z m 6.6,-23.4 c -2.2,0 -4,0.8 -5.5,2.2 -1.5,1.4 -2.3,3.2 -2.3,5.4 0,2.1 0.8,3.9 2.3,5.3 1.5,1.4 3.3,2.1 5.5,2.1 2.2,0 4.1,-0.8 5.5,-2.1 1.5,-1.4 2.3,-3.2 2.3,-5.3 0,-2.1 -0.8,-3.9 -2.3,-5.4 -1.3,-1.4 -3.2,-2.2 -5.5,-2.2 m 52.5,22.9 c -2.4,-0.5 -4.9,-0.8 -7.3,-0.8 -5.9,0 -11.3,1.3 -15.8,3.9 -4.5,2.6 -8.1,6.2 -10.4,10.7 -2.4,4.6 -3.6,9.9 -3.6,16 0,5.3 1.2,10 3.5,14.3 2.3,4.2 5.5,7.6 9.8,9.9 4.1,2.3 8.9,3.5 14.3,3.5 6.2,0 11.5,-1.3 15.7,-3.7 l 0.1,-0.1 v -12 l -0.5,0.4 c -1.9,1.4 -4.1,2.6 -6.3,3.3 -2.3,0.8 -4.4,1.2 -6.2,1.2 -5.2,0 -9.3,-1.5 -12.2,-4.8 -3,-3.2 -4.5,-7.6 -4.5,-13.1 0,-5.7 1.5,-10.2 4.6,-13.5 3.1,-3.3 7.2,-5 12.2,-5 4.2,0 8.5,1.4 12.4,4.2 l 0.5,0.4 V 49.2 l -0.1,-0.1 c -1.7,-0.7 -3.6,-1.5 -6.2,-2 m 42.9,-0.4 c -3.2,0 -6.2,1 -8.8,3.1 -2.2,1.8 -3.7,4.4 -5,7.5 h -0.1 v -9.7 h -13 V 103 h 13 V 74.7 c 0,-4.8 1,-8.8 3.2,-11.7 2.2,-3 5,-4.5 8.4,-4.5 1.2,0 2.4,0.3 3.9,0.5 1.4,0.4 2.4,0.8 3.1,1.3 l 0.5,0.4 v -13 l -0.3,-0.1 C 369.8,47 368,46.7 365.8,46.7 m 91.9,23.9 c -4.1,-1.7 -6.7,-3 -7.9,-4.1 -1,-1 -1.5,-2.4 -1.5,-4.2 0,-1.5 0.6,-3 2.1,-4 1.5,-1 3.2,-1.5 5.7,-1.5 2.2,0 4.5,0.4 6.7,1 2.2,0.6 4.2,1.5 5.8,2.7 l 0.5,0.4 V 48.7 l -0.3,-0.1 c -1.5,-0.6 -3.5,-1.2 -5.9,-1.7 -2.4,-0.4 -4.6,-0.6 -6.4,-0.6 -6.2,0 -11.3,1.5 -15.3,4.8 -4,3.1 -5.9,7.3 -5.9,12.2 0,2.6 0.4,4.9 1.3,6.8 0.9,1.9 2.2,3.7 4,5.2 1.8,1.4 4.4,3 8,4.5 3,1.3 5.3,2.3 6.7,3.1 1.4,0.8 2.3,1.7 3,2.4 0.5,0.8 0.8,1.8 0.8,3.1 0,3.7 -2.8,5.5 -8.5,5.5 -2.2,0 -4.5,-0.4 -7.2,-1.3 -2.7,-0.9 -5.2,-2.2 -7.3,-3.7 l -0.5,-0.4 v 12.7 l 0.3,0.1 c 1.9,0.9 4.2,1.5 7,2.2 2.8,0.5 5.3,0.9 7.5,0.9 6.7,0 12.2,-1.5 16.1,-4.8 4,-3.2 6.1,-7.3 6.1,-12.6 0,-3.7 -1,-7 -3.2,-9.5 -2.9,-2.4 -6.5,-4.9 -11.7,-6.9 m 120,16.2 c 0,11.7 5.5,17.6 16.5,17.6 1.8,0 3.7,-0.3 5.5,-0.6 1.9,-0.4 3.3,-0.9 4.1,-1.3 l 0.1,-0.1 V 91.7 l -0.5,0.4 c -0.8,0.5 -1.5,0.9 -2.7,1.2 -1,0.3 -1.9,0.4 -2.6,0.4 -2.6,0 -4.4,-0.6 -5.7,-2.1 -1.2,-1.4 -1.8,-3.7 -1.8,-7.1 V 55 h 0.2 V 31.2 l -0.4,0.1 -12.4,3.7 -0.3,0.1 z M 558.1,40.6 c 0,-3.2 0.8,-5.7 2.2,-7.3 1.4,-1.6 3.5,-2.4 6.1,-2.4 1.8,0 3.7,0.4 5.8,1.3 l 0.5,0.3 V 21.2 l -0.3,-0.1 c -1.8,-0.6 -4.2,-1 -7.3,-1 -3.9,0 -7.3,0.9 -10.4,2.4 -3.1,1.7 -5.4,4 -7.1,7.1 -1.7,3 -2.6,6.4 -2.6,10.3 V 103 h 13.1 z M 550,58.3 h 53.9 V 47.6 h -68 V 58.2 H 550 Z" />
  <path
     id="o"
     d="m 401.2,46.4 c -9.1,0 -16.4,2.7 -21.5,8 -5.2,5.3 -7.7,12.6 -7.7,21.8 0,8.6 2.6,15.6 7.6,20.7 5,5 11.8,7.6 20.3,7.6 8.9,0 16,-2.7 21.1,-8.1 5.2,-5.4 7.7,-12.6 7.7,-21.5 0,-8.8 -2.4,-15.8 -7.3,-20.9 -4.7,-5.1 -11.6,-7.6 -20.2,-7.6 M 411.6,89 c -2.4,3.1 -6.2,4.6 -10.9,4.6 -4.7,0 -8.5,-1.5 -11.2,-4.8 -2.7,-3.1 -4,-7.6 -4,-13.3 0,-5.9 1.4,-10.4 4,-13.6 2.7,-3.2 6.4,-4.8 11.1,-4.8 4.6,0 8.2,1.5 10.8,4.6 2.6,3.1 4,7.6 4,13.5 -0.2,6 -1.3,10.7 -3.8,13.8" />
  <use
     height="100%"
     width="100%"
     y="0"
     x="0"
     id="use7913"
     transform="translate(105.7)"
     xlink:href="#o" />
  <path
     style="fill:#f25022"
     id="path7915"
     d="M 0,0 H 61.3 V 61.3 H 0 Z" />
  <path
     style="fill:#7fba00"
     id="path7917"
     d="M 67.7,0 H 129 V 61.3 H 67.7 Z" />
  <path
     style="fill:#00a4ef"
     id="path7919"
     d="M 0,67.7 H 61.3 V 129 H 0 Z" />
  <path
     style="fill:#ffb900"
     id="path7921"
     d="M 67.7,67.7 H 129 V 129 H 67.7 Z" />
</svg>
