<?xml version="1.0" ?><svg enable-background="new 0 0 32 32" id="Outline_Color" version="1.1" viewBox="0 0 32 32" xml:space="preserve" xmlns="http://www.w3.org/2000/svg" xmlns:xlink="http://www.w3.org/1999/xlink"><g><g><g><path d="M4,31.5c-1.93,0-3.5-1.57-3.5-3.5V4c0-1.93,1.57-3.5,3.5-3.5h24c1.93,0,3.5,1.57,3.5,3.5v24     c0,1.93-1.57,3.5-3.5,3.5H4z" fill="#FFFFFF"/><path d="M28,1c1.654,0,3,1.346,3,3v24c0,1.654-1.346,3-3,3H4c-1.654,0-3-1.346-3-3V4c0-1.654,1.346-3,3-3H28 M28,0H4     C1.8,0,0,1.8,0,4v24c0,2.2,1.8,4,4,4h24c2.2,0,4-1.8,4-4V4C32,1.8,30.2,0,28,0L28,0z"/></g><path d="M27.437,29.438H4.562c-1.1,0-2-0.9-2-2V4.562c0-1.1,0.9-2,2-2h22.875c1.1,0,2,0.9,2,2v22.875    C29.437,28.538,28.538,29.438,27.437,29.438z"/></g><path d="M21.705,23.647h2.942c0-8.434-6.861-15.3-15.294-15.3v2.934C16.163,11.281,21.705,16.829,21.705,23.647z    M11.39,23.652c1.128,0,2.039-0.906,2.039-2.029c0-1.117-0.911-2.033-2.039-2.033c-1.123,0-2.036,0.916-2.036,2.033   C9.353,22.746,10.266,23.652,11.39,23.652z M16.506,23.648L16.506,23.648h2.945c0-5.57-4.531-10.101-10.099-10.101v2.933   c1.91,0,3.705,0.746,5.057,2.1C15.761,19.929,16.506,21.732,16.506,23.648z" fill="#FFFFFF"/></g></svg>