<?xml version="1.0" ?><svg enable-background="new 0 0 32 32" id="Outline_Color" version="1.1" viewBox="0 0 32 32" xml:space="preserve" xmlns="http://www.w3.org/2000/svg" xmlns:xlink="http://www.w3.org/1999/xlink"><g><g><g><path d="M4,31.5c-1.93,0-3.5-1.57-3.5-3.5V4c0-1.93,1.57-3.5,3.5-3.5h24c1.93,0,3.5,1.57,3.5,3.5v24     c0,1.93-1.57,3.5-3.5,3.5H4z" fill="#FFFFFF"/><path d="M28,1c1.654,0,3,1.346,3,3v24c0,1.654-1.346,3-3,3H4c-1.654,0-3-1.346-3-3V4c0-1.654,1.346-3,3-3H28 M28,0H4     C1.8,0,0,1.8,0,4v24c0,2.2,1.8,4,4,4h24c2.2,0,4-1.8,4-4V4C32,1.8,30.2,0,28,0L28,0z"/></g><path d="M27.437,29.438H4.562c-1.1,0-2-0.9-2-2V4.562c0-1.1,0.9-2,2-2h22.875c1.1,0,2,0.9,2,2v22.875    C29.437,28.538,28.538,29.438,27.437,29.438z"/></g><path d="M13.69,24.903h3.679v-8.904h2.454l0.325-3.068h-2.779l0.004-1.536c0-0.8,0.076-1.229,1.224-1.229h1.534   V7.097h-2.455c-2.949,0-3.986,1.489-3.986,3.992v1.842h-1.838v3.069h1.838V24.903z" fill="#FFFFFF"/></g></svg>