<?xml version="1.0" ?><svg enable-background="new 0 0 32 32" id="Outline_Color" version="1.1" viewBox="0 0 32 32" xml:space="preserve" xmlns="http://www.w3.org/2000/svg" xmlns:xlink="http://www.w3.org/1999/xlink"><g><g><g><path d="M4,31.5c-1.93,0-3.5-1.57-3.5-3.5V4c0-1.93,1.57-3.5,3.5-3.5h24c1.93,0,3.5,1.57,3.5,3.5v24     c0,1.93-1.57,3.5-3.5,3.5H4z" fill="#FFFFFF"/><path d="M28,1c1.654,0,3,1.346,3,3v24c0,1.654-1.346,3-3,3H4c-1.654,0-3-1.346-3-3V4c0-1.654,1.346-3,3-3H28 M28,0H4     C1.8,0,0,1.8,0,4v24c0,2.2,1.8,4,4,4h24c2.2,0,4-1.8,4-4V4C32,1.8,30.2,0,28,0L28,0z"/></g><path d="M27.438,29.437H4.562c-1.1,0-2-0.9-2-2V4.562c0-1.1,0.9-2,2-2h22.875c1.1,0,2,0.9,2,2v22.875    C29.438,28.537,28.538,29.437,27.438,29.437z"/></g><path d="M19.541,25.757h-2.599h-2.602c0,0,0.007-1.544,0-2.602c-3.56,0.766-4.553-1.951-4.553-1.951   c-0.65-1.301-1.301-1.951-1.301-1.951c-1.301-0.773,0-0.65,0-0.65c1.301,0,1.951,1.301,1.951,1.301   c1.142,1.938,3.173,1.626,3.903,1.301c0-0.65,0.285-1.634,0.65-1.951c-2.841-0.32-5.207-1.951-5.207-5.204s0.653-3.903,1.304-4.553   c-0.131-0.321-0.676-1.506,0.02-3.252c0,0,1.278,0,2.579,1.951c0.645-0.645,2.602-0.65,3.253-0.65c0.649,0,2.607,0.006,3.251,0.65   c1.301-1.951,2.582-1.951,2.582-1.951c0.695,1.747,0.152,2.932,0.02,3.252c0.65,0.65,1.301,1.301,1.301,4.553   s-2.362,4.884-5.204,5.204c0.366,0.317,0.65,1.437,0.65,1.951L19.541,25.757L19.541,25.757z" fill="#FFFFFF" id="Cat_6_"/></g></svg>