<?xml version="1.0" ?><svg enable-background="new 0 0 32 32" id="Outline_Color" version="1.1" viewBox="0 0 32 32" xml:space="preserve" xmlns="http://www.w3.org/2000/svg" xmlns:xlink="http://www.w3.org/1999/xlink"><g><g><g><path d="M4,31.5c-1.93,0-3.5-1.57-3.5-3.5V4c0-1.93,1.57-3.5,3.5-3.5h24c1.93,0,3.5,1.57,3.5,3.5v24     c0,1.93-1.57,3.5-3.5,3.5H4z" fill="#FFFFFF"/><path d="M28,1c1.654,0,3,1.346,3,3v24c0,1.654-1.346,3-3,3H4c-1.654,0-3-1.346-3-3V4c0-1.654,1.346-3,3-3H28 M28,0H4     C1.8,0,0,1.8,0,4v24c0,2.2,1.8,4,4,4h24c2.2,0,4-1.8,4-4V4C32,1.8,30.2,0,28,0L28,0z"/></g><path d="M27.438,29.437H4.562c-1.1,0-2-0.9-2-2V4.562c0-1.1,0.9-2,2-2h22.875c1.1,0,2,0.9,2,2v22.875    C29.438,28.537,28.538,29.437,27.438,29.437z"/></g><g><path d="M16,15.586l9.195-4.846c-0.126-0.502-0.561-0.885-1.101-0.885H7.906c-0.54,0-0.976,0.383-1.101,0.885    L16,15.586z" fill="#FFFFFF"/><polygon fill="#FFFFFF" points="15.936,16.513 13.633,15.299 8.759,22.145 23.227,22.145 18.354,15.306 16,16.547   "/><path d="M19.113,14.907l5.134,7.207c0.561-0.078,1.003-0.543,1.003-1.125v-9.317L19.113,14.907z" fill="#FFFFFF"/><path d="M7.74,22.111l5.135-7.211L6.75,11.672v9.316C6.75,21.566,7.185,22.027,7.74,22.111z" fill="#FFFFFF"/></g></g></svg>