<?xml version="1.0" ?><svg enable-background="new 0 0 32 32" id="Outline_Color" version="1.1" viewBox="0 0 32 32" xml:space="preserve" xmlns="http://www.w3.org/2000/svg" xmlns:xlink="http://www.w3.org/1999/xlink"><g><g><g><path d="M4,31.5c-1.93,0-3.5-1.57-3.5-3.5V4c0-1.93,1.57-3.5,3.5-3.5h24c1.93,0,3.5,1.57,3.5,3.5v24     c0,1.93-1.57,3.5-3.5,3.5H4z" fill="#FFFFFF"/><path d="M28,1c1.654,0,3,1.346,3,3v24c0,1.654-1.346,3-3,3H4c-1.654,0-3-1.346-3-3V4c0-1.654,1.346-3,3-3H28 M28,0H4     C1.8,0,0,1.8,0,4v24c0,2.2,1.8,4,4,4h24c2.2,0,4-1.8,4-4V4C32,1.8,30.2,0,28,0L28,0z"/></g><path d="M27.437,29.438H4.562c-1.1,0-2-0.9-2-2V4.562c0-1.1,0.9-2,2-2h22.875c1.1,0,2,0.9,2,2v22.875    C29.437,28.538,28.538,29.438,27.437,29.438z"/></g><path d="M18.226,8.886c-1.59,0.579-2.595,2.071-2.481,3.704l0.038,0.63l-0.636-0.077   c-2.315-0.296-4.338-1.299-6.056-2.984l-0.84-0.836L8.036,9.94c-0.458,1.376-0.165,2.83,0.789,3.808   c0.509,0.54,0.394,0.617-0.483,0.296c-0.305-0.103-0.573-0.18-0.598-0.141c-0.089,0.09,0.216,1.26,0.458,1.724   c0.331,0.644,1.005,1.273,1.743,1.647l0.624,0.296L9.83,17.581c-0.712,0-0.738,0.013-0.661,0.284   c0.254,0.836,1.259,1.724,2.379,2.11l0.789,0.27l-0.687,0.412c-1.018,0.593-2.214,0.927-3.41,0.951   c-0.573,0.013-1.044,0.064-1.044,0.103c0,0.128,1.553,0.848,2.455,1.132c2.71,0.836,5.929,0.475,8.346-0.952   c1.718-1.016,3.435-3.036,4.237-4.992c0.433-1.041,0.865-2.945,0.865-3.858c0-0.592,0.038-0.669,0.75-1.376   c0.42-0.412,0.814-0.862,0.891-0.99c0.128-0.245,0.114-0.245-0.534-0.026c-1.081,0.386-1.234,0.335-0.699-0.244   c0.394-0.412,0.865-1.158,0.865-1.376c0-0.038-0.191,0.026-0.407,0.141c-0.229,0.129-0.738,0.322-1.12,0.437l-0.687,0.219   L21.535,9.4c-0.344-0.231-0.826-0.489-1.081-0.566C19.804,8.654,18.812,8.68,18.226,8.886z" fill="#FFFFFF"/></g></svg>