<?xml version="1.0" ?><svg enable-background="new 0 0 32 32" id="Outline_Color" version="1.1" viewBox="0 0 32 32" xml:space="preserve" xmlns="http://www.w3.org/2000/svg" xmlns:xlink="http://www.w3.org/1999/xlink"><g><g><g><path d="M4,31.5c-1.93,0-3.5-1.57-3.5-3.5V4c0-1.93,1.57-3.5,3.5-3.5h24c1.93,0,3.5,1.57,3.5,3.5v24     c0,1.93-1.57,3.5-3.5,3.5H4z" fill="#FFFFFF"/><path d="M28,1c1.654,0,3,1.346,3,3v24c0,1.654-1.346,3-3,3H4c-1.654,0-3-1.346-3-3V4c0-1.654,1.346-3,3-3H28 M28,0H4     C1.8,0,0,1.8,0,4v24c0,2.2,1.8,4,4,4h24c2.2,0,4-1.8,4-4V4C32,1.8,30.2,0,28,0L28,0z"/></g><path d="M27.438,29.437H4.562c-1.1,0-2-0.9-2-2V4.562c0-1.1,0.9-2,2-2h22.875c1.1,0,2,0.9,2,2v22.875    C29.438,28.537,28.538,29.437,27.438,29.437z"/></g><g><g><path d="M21.15,19.085c-0.146,0-0.25,0.041-0.314,0.128c-0.063,0.082-0.094,0.222-0.094,0.417v0.47h0.809v-0.47     c0-0.195-0.033-0.335-0.097-0.417C21.392,19.126,21.289,19.085,21.15,19.085z" fill="#FFFFFF"/><path d="M17.996,19.068c-0.066,0-0.13,0.014-0.194,0.045c-0.063,0.03-0.126,0.078-0.189,0.142v2.899     c0.074,0.074,0.147,0.132,0.217,0.164c0.07,0.033,0.143,0.05,0.221,0.05c0.112,0,0.194-0.032,0.246-0.099     c0.052-0.065,0.08-0.17,0.08-0.32v-2.402c0-0.157-0.033-0.277-0.097-0.357C18.215,19.108,18.119,19.068,17.996,19.068z" fill="#FFFFFF"/><path d="M23.079,15.462c-0.752-0.75-7.082-0.76-7.082-0.76c0-0.001-6.33,0.009-7.083,0.759     c-0.753,0.752-0.755,4.462-0.755,4.483c0,0.028,0.002,3.732,0.755,4.484c0.753,0.75,7.083,0.766,7.083,0.766     s6.331-0.016,7.082-0.766c0.756-0.754,0.763-4.484,0.763-4.484C23.842,19.924,23.833,16.214,23.079,15.462z M12.987,17.649     h-1.066v5.39h-1.031v-5.39H9.823v-0.916h3.163V17.649z M16,23.038h-0.913v-0.511c-0.17,0.189-0.345,0.333-0.529,0.431     c-0.183,0.1-0.36,0.148-0.531,0.148c-0.212,0-0.369-0.068-0.478-0.208c-0.105-0.139-0.16-0.345-0.16-0.623v-3.89h0.914v3.568     c0,0.111,0.019,0.19,0.056,0.24c0.04,0.05,0.103,0.074,0.188,0.074c0.067,0,0.153-0.032,0.256-0.099     c0.103-0.065,0.197-0.148,0.284-0.249v-3.534H16V23.038z M19.319,22.077c0,0.329-0.072,0.581-0.215,0.757     c-0.142,0.176-0.351,0.263-0.622,0.263c-0.18,0-0.339-0.032-0.478-0.101c-0.14-0.068-0.272-0.171-0.391-0.315v0.357h-0.924     v-6.306h0.924v2.031c0.124-0.142,0.254-0.251,0.392-0.323c0.14-0.074,0.28-0.111,0.422-0.111c0.29,0,0.511,0.099,0.663,0.296     c0.154,0.199,0.229,0.489,0.229,0.87V22.077z M22.491,20.825h-1.749V21.7c0,0.245,0.03,0.415,0.089,0.51     c0.062,0.095,0.164,0.141,0.31,0.141c0.151,0,0.257-0.04,0.318-0.12c0.06-0.08,0.092-0.256,0.092-0.531v-0.212h0.941v0.239     c0,0.477-0.114,0.836-0.344,1.079c-0.228,0.241-0.571,0.36-1.026,0.36c-0.409,0-0.733-0.127-0.968-0.383     c-0.235-0.255-0.354-0.606-0.354-1.055v-2.089c0-0.402,0.131-0.733,0.389-0.986c0.258-0.254,0.591-0.381,1.001-0.381     c0.419,0,0.741,0.118,0.966,0.353c0.225,0.235,0.336,0.573,0.336,1.014V20.825z" fill="#FFFFFF"/></g><path d="M21.146,13.751h-1.03v-0.566c-0.188,0.208-0.386,0.368-0.592,0.476c-0.205,0.109-0.404,0.164-0.597,0.164    c-0.24,0-0.418-0.077-0.538-0.229c-0.12-0.153-0.181-0.381-0.181-0.687V8.626h1.028v3.929c0,0.121,0.024,0.209,0.067,0.263    c0.042,0.055,0.113,0.082,0.209,0.082c0.075,0,0.171-0.036,0.287-0.108c0.115-0.072,0.222-0.164,0.317-0.276v-3.89h1.03    L21.146,13.751L21.146,13.751z" fill="#FFFFFF"/><path d="M16.965,8.869c-0.273-0.248-0.623-0.373-1.049-0.373c-0.467,0-0.841,0.118-1.117,0.353    c-0.278,0.235-0.417,0.551-0.416,0.949v2.656c0,0.436,0.136,0.782,0.405,1.04c0.271,0.257,0.632,0.386,1.082,0.386    c0.469,0,0.835-0.125,1.104-0.374c0.266-0.25,0.399-0.593,0.399-1.031V9.827C17.372,9.437,17.236,9.117,16.965,8.869z     M16.323,12.552c0,0.136-0.041,0.244-0.123,0.324c-0.083,0.078-0.193,0.117-0.332,0.117c-0.137,0-0.242-0.038-0.314-0.115    c-0.073-0.078-0.111-0.186-0.111-0.326V9.76c0-0.112,0.04-0.203,0.118-0.272c0.079-0.069,0.181-0.103,0.307-0.103    c0.135,0,0.245,0.034,0.329,0.103c0.084,0.069,0.126,0.16,0.126,0.272V12.552z" fill="#FFFFFF"/><polygon fill="#FFFFFF" points="11.578,6.805 10.41,6.805 11.79,10.999 11.79,13.751 12.95,13.751 12.95,10.869 14.299,6.805     13.12,6.805 12.404,9.581 12.331,9.581   "/></g></g></svg>