<?xml version="1.0" standalone="no"?>
<!DOCTYPE svg PUBLIC "-//W3C//DTD SVG 20010904//EN"
 "http://www.w3.org/TR/2001/REC-SVG-20010904/DTD/svg10.dtd">
<svg version="1.0" xmlns="http://www.w3.org/2000/svg"
 width="328.000000pt" height="328.000000pt" viewBox="0 0 328.000000 328.000000"
 preserveAspectRatio="xMidYMid meet">
<metadata>
Created by potrace 1.11, written by Peter Selinger 2001-2013
</metadata>
<g transform="translate(0.000000,328.000000) scale(0.100000,-0.100000)"
fill="#000000" stroke="none">
<path d="M1049 3043 l-256 -106 26 -22 c42 -35 432 -335 435 -335 1 0 3 6 3
13 0 6 3 30 6 52 22 166 29 213 32 231 2 12 7 48 10 80 4 33 9 68 11 79 14 72
14 115 2 114 -7 0 -128 -48 -269 -106z m135 -110 c-3 -21 -8 -60 -12 -86 l-7
-49 -68 52 c-38 29 -67 54 -65 56 6 5 141 62 151 63 4 1 5 -16 1 -36z"/>
<path d="M1964 3098 c12 -92 15 -122 21 -173 4 -27 8 -61 10 -75 2 -14 9 -63
15 -110 16 -133 19 -153 22 -155 4 -4 452 335 455 343 3 7 -503 222 -521 222
-4 0 -5 -24 -2 -52z m259 -181 c15 -7 27 -15 27 -18 0 -6 -115 -99 -123 -99
-3 0 -8 21 -11 48 -4 26 -9 64 -12 85 l-6 37 49 -20 c26 -12 60 -26 76 -33z"/>
<path d="M1587 3028 c-150 -254 -235 -403 -232 -407 3 -3 442 -4 543 -2 l33 1
-30 53 c-16 28 -50 88 -76 132 -66 110 -156 265 -171 293 -12 23 -14 20 -67
-70z m116 -251 l27 -47 -85 1 c-47 1 -85 3 -85 6 0 9 54 108 69 126 16 19 16
19 74 -86z"/>
<path d="M345 2898 c2 -13 8 -63 15 -113 17 -140 29 -184 54 -197 12 -7 64
-13 119 -13 l98 -1 117 -117 c65 -64 124 -117 133 -117 21 0 39 20 39 45 0 13
-42 63 -115 135 l-115 115 0 101 c0 91 -2 102 -22 122 -24 22 -44 28 -123 37
-27 3 -79 10 -115 15 -89 13 -89 13 -85 -12z m205 -106 c37 -28 77 -122 51
-122 -12 0 -151 134 -151 145 0 13 74 -4 100 -23z"/>
<path d="M2837 2909 c-27 -4 -70 -10 -95 -14 -96 -12 -108 -16 -129 -41 -19
-20 -22 -36 -22 -92 1 -134 9 -118 -116 -245 -63 -64 -115 -123 -115 -131 0
-18 27 -46 45 -46 7 0 65 52 129 117 l117 116 97 3 c53 1 103 2 109 3 30 2 44
46 67 211 2 19 8 56 11 83 l7 47 -28 -2 c-16 -1 -51 -6 -77 -9z m-18 -106
c-26 -34 -130 -133 -138 -133 -13 0 3 61 23 92 19 30 70 57 105 58 21 0 22 -2
10 -17z"/>
<path d="M327 2439 c-92 -209 -199 -471 -194 -476 5 -5 131 8 221 22 11 2 39
6 61 9 22 2 76 9 120 15 44 6 97 13 119 16 21 2 40 6 42 8 3 3 -25 41 -137
187 -11 14 -60 79 -110 145 -51 66 -93 122 -95 124 -2 2 -14 -20 -27 -50z
m108 -250 c26 -33 45 -62 43 -64 -5 -5 -50 -13 -115 -21 l-52 -6 31 76 c18 42
35 76 38 76 4 0 28 -27 55 -61z"/>
<path d="M1043 2241 l-248 -247 0 -352 0 -351 247 -248 246 -248 351 0 351 0
249 247 249 247 0 349 1 349 -248 249 -247 249 -351 2 -351 1 -249 -247z m766
-109 c63 -32 79 -79 79 -237 -1 -219 -18 -235 -259 -235 -145 0 -158 -2 -189
-22 -61 -42 -75 -71 -79 -164 l-3 -84 -62 4 c-95 5 -125 33 -152 138 -12 45
-15 86 -11 145 7 95 30 150 79 185 31 22 43 23 237 28 182 4 203 7 190 20 -12
12 -40 15 -132 14 l-117 -2 3 79 c4 99 22 122 111 142 85 20 257 14 305 -11z
m262 -256 c24 -10 57 -76 72 -142 28 -126 -18 -301 -87 -329 -21 -9 -85 -13
-196 -13 -228 0 -220 0 -220 -17 0 -13 21 -15 125 -15 l125 0 -4 -66 c-4 -83
-24 -112 -100 -142 -138 -55 -336 -19 -381 69 -20 38 -16 313 5 345 31 50 63
58 236 59 167 1 186 5 232 51 25 26 42 84 42 148 0 63 1 65 28 68 30 3 98 -5
123 -16z"/>
<path d="M1471 2073 c-23 -16 -28 -52 -9 -71 21 -21 63 -14 77 12 25 46 -25
90 -68 59z"/>
<path d="M1752 1284 c-27 -18 -28 -45 -4 -67 24 -22 45 -21 65 1 21 23 22 46
1 66 -19 20 -34 20 -62 0z"/>
<path d="M2890 2429 c-25 -33 -50 -65 -55 -72 -20 -23 -241 -312 -248 -323 -3
-6 -1 -11 6 -11 24 -2 124 -14 143 -17 11 -2 47 -7 79 -11 33 -4 67 -9 75 -10
9 -2 43 -6 75 -10 33 -4 67 -9 75 -10 8 -2 39 -6 67 -10 l53 -7 -76 184 c-41
100 -91 222 -111 271 -19 48 -36 87 -37 87 0 -1 -21 -28 -46 -61z m50 -259
c17 -40 29 -74 27 -76 -1 -1 -40 3 -86 9 l-83 12 52 68 c29 37 54 66 56 64 2
-2 17 -36 34 -77z"/>
<path d="M624 1908 c-130 -72 -454 -264 -454 -270 0 -3 57 -40 127 -81 71 -41
179 -104 242 -141 63 -36 117 -64 120 -60 4 4 10 574 6 574 0 0 -19 -10 -41
-22z m-78 -345 c-5 -6 -146 68 -146 77 0 3 33 23 73 45 l72 40 3 -79 c2 -43 1
-81 -2 -83z"/>
<path d="M2619 1908 c-5 -144 0 -553 8 -551 5 1 47 24 94 51 223 129 385 225
391 231 6 5 -118 79 -434 259 l-58 34 -1 -24z m196 -225 c36 -21 65 -40 65
-43 0 -10 -132 -82 -138 -75 -10 10 -9 155 1 155 5 0 37 -17 72 -37z"/>
<path d="M130 1322 c0 -8 140 -353 202 -499 l14 -32 69 92 c38 51 72 94 75 97
3 3 37 46 75 95 38 50 81 106 97 125 15 19 28 40 28 46 0 6 -26 14 -62 18 -35
3 -74 8 -88 11 -21 3 -110 15 -372 51 -21 3 -38 1 -38 -4z m285 -148 c28 -3
53 -8 57 -11 4 -2 -15 -33 -43 -69 -29 -36 -53 -63 -55 -62 -3 4 -64 151 -64
156 0 2 12 1 28 -2 15 -3 50 -8 77 -12z"/>
<path d="M3129 1326 c-2 -2 -24 -7 -49 -11 -25 -3 -56 -8 -70 -10 -14 -2 -47
-7 -75 -10 -60 -6 -282 -35 -310 -40 -11 -2 -26 -4 -33 -4 -7 -1 43 -74 111
-163 68 -90 145 -191 171 -225 26 -34 50 -65 55 -67 12 -8 225 514 214 525 -5
5 -11 7 -14 5z m-175 -183 c-9 -21 -23 -55 -32 -76 -8 -21 -19 -36 -23 -35
-12 5 -101 119 -96 124 2 3 26 7 53 11 27 3 50 6 51 7 1 1 16 3 33 4 l30 2
-16 -37z"/>
<path d="M603 676 c-235 -235 -264 -268 -261 -293 2 -22 9 -29 31 -31 25 -3
58 26 293 261 145 146 264 270 264 276 0 14 -37 51 -51 51 -6 0 -130 -119
-276 -264z"/>
<path d="M2381 923 c-16 -10 -20 -21 -15 -36 10 -34 515 -537 539 -537 25 0
45 18 45 41 0 17 -506 532 -533 542 -8 3 -24 -1 -36 -10z"/>
<path d="M1037 540 c-115 -86 -217 -166 -228 -176 -18 -19 -16 -20 114 -73 73
-29 146 -60 162 -67 96 -43 245 -102 241 -96 -2 4 -7 34 -11 67 -6 55 -9 81
-20 155 -2 14 -7 52 -11 85 -3 33 -8 68 -10 77 -1 9 -6 48 -10 85 -3 37 -9 75
-13 84 -5 13 -51 -17 -214 -141z m124 -67 c0 -5 2 -17 4 -28 2 -11 7 -46 10
-78 l7 -57 -77 35 c-43 19 -80 35 -83 35 -8 0 122 99 131 99 4 1 7 -2 8 -6z"/>
<path d="M2011 583 c-7 -60 -15 -117 -17 -128 -4 -28 -22 -162 -29 -215 -3
-25 -8 -60 -11 -78 -3 -17 -1 -32 4 -32 8 0 151 56 217 85 17 7 94 39 172 71
79 32 141 59 139 61 -24 24 -444 343 -452 343 -6 0 -16 -46 -23 -107z m176
-155 c73 -58 74 -53 -31 -93 -57 -21 -64 -22 -61 -7 7 39 19 138 17 145 -4 15
12 6 75 -45z"/>
<path d="M1383 662 l-32 -3 31 -52 c30 -51 46 -79 97 -168 106 -186 157 -268
166 -266 5 2 16 17 25 33 9 16 72 123 139 237 68 115 120 211 117 214 -5 6
-489 10 -543 5z m316 -165 c-16 -29 -35 -62 -41 -74 -6 -13 -14 -23 -17 -23
-3 0 -25 34 -47 75 l-42 74 89 0 89 0 -31 -52z"/>
</g>
</svg>
