<?xml version="1.0" encoding="UTF-8"?>
<svg xmlns="http://www.w3.org/2000/svg" xmlns:xlink="http://www.w3.org/1999/xlink" width="32pt" height="32pt" viewBox="0 0 32 32" version="1.1">
<g id="surface1">
<path style=" stroke:none;fill-rule:nonzero;fill:rgb(100%,100%,100%);fill-opacity:1;" d="M 0.148438 8.066406 L 31.695312 8.066406 L 31.695312 28.609375 L 0.148438 28.609375 Z M 0.148438 8.066406 "/>
<path style=" stroke:none;fill-rule:nonzero;fill:rgb(94.117647%,0.392157%,0.392157%);fill-opacity:1;" d="M 1.308594 31.789062 C 0.878906 31.542969 0.386719 30.839844 0.164062 30.160156 L 0 29.664062 L 0 2.335938 L 0.164062 1.839844 C 0.390625 1.140625 0.878906 0.457031 1.328125 0.207031 L 1.695312 0 L 30.304688 0 L 30.683594 0.214844 C 31.140625 0.46875 31.644531 1.179688 31.855469 1.863281 L 32 2.335938 L 32 29.664062 L 31.855469 30.136719 C 31.644531 30.820312 31.140625 31.53125 30.683594 31.785156 L 30.304688 32 L 15.980469 31.996094 C 1.769531 31.988281 1.652344 31.988281 1.308594 31.789062 Z M 31.636719 18.136719 L 31.636719 8.546875 L 0.363281 8.546875 L 0.363281 27.726562 L 31.636719 27.726562 Z M 25.152344 26.335938 C 25.023438 26.195312 24.800781 24.367188 24.710938 22.710938 C 24.664062 21.902344 24.644531 21.792969 24.472656 21.550781 C 24.199219 21.171875 24.246094 20.671875 24.550781 20.671875 C 24.667969 20.671875 24.738281 20.335938 24.785156 19.527344 C 24.851562 18.449219 25.152344 16.761719 25.421875 15.957031 C 25.75 14.984375 26.589844 13.914062 27.027344 13.914062 C 27.167969 13.914062 27.554688 14.101562 28.023438 14.398438 C 28.097656 14.445312 28.242188 14.535156 28.34375 14.597656 C 28.582031 14.742188 28.832031 15.539062 28.886719 16.347656 C 28.9375 17.070312 28.832031 18.023438 28.625 18.71875 C 28.304688 19.792969 26.945312 21.613281 26.273438 21.871094 L 25.9375 22 L 25.941406 22.949219 C 25.941406 24.128906 26.035156 25.25 26.179688 25.8125 C 26.238281 26.046875 26.265625 26.273438 26.238281 26.3125 C 26.1875 26.394531 25.222656 26.414062 25.152344 26.335938 Z M 26.628906 19.570312 C 26.898438 19.1875 27.195312 18.652344 27.289062 18.386719 C 27.492188 17.804688 27.605469 16.832031 27.550781 16.136719 C 27.488281 15.34375 27.429688 15.285156 27.15625 15.75 C 26.703125 16.515625 26.433594 17.414062 26.226562 18.828125 C 26.039062 20.085938 26.019531 20.273438 26.078125 20.273438 C 26.109375 20.273438 26.359375 19.957031 26.628906 19.570312 Z M 18.265625 21.007812 C 18.222656 19.996094 18.175781 19.132812 18.15625 19.089844 C 18.136719 19.042969 17.894531 18.976562 17.609375 18.941406 C 17.03125 18.859375 16.925781 18.777344 16.925781 18.378906 C 16.925781 17.933594 17.140625 17.773438 17.636719 17.851562 L 18.054688 17.914062 L 18.050781 17.53125 C 18.050781 17.316406 18.019531 16.808594 17.984375 16.398438 C 17.730469 13.394531 17.683594 11.265625 17.855469 10.585938 C 17.90625 10.375 17.960938 10.335938 18.1875 10.335938 C 18.445312 10.335938 19.058594 10.714844 19.144531 10.929688 C 19.167969 10.988281 19.203125 12.25 19.222656 13.738281 C 19.265625 17.226562 19.265625 16.992188 19.210938 17.367188 C 19.171875 17.652344 19.179688 17.6875 19.308594 17.6875 C 19.429688 17.6875 19.449219 17.640625 19.433594 17.417969 C 19.414062 17.183594 19.4375 17.136719 19.589844 17.113281 C 19.730469 17.085938 19.855469 17.210938 20.203125 17.703125 C 20.441406 18.046875 20.636719 18.378906 20.636719 18.445312 C 20.636719 18.585938 20.402344 18.664062 19.464844 18.839844 L 19.1875 18.894531 L 19.21875 20.761719 C 19.257812 22.886719 19.292969 22.738281 18.679688 22.808594 L 18.34375 22.847656 Z M 8.554688 22.601562 C 8.53125 22.515625 8.511719 22.367188 8.511719 22.277344 C 8.511719 22.1875 8.433594 21.84375 8.339844 21.515625 C 8.152344 20.851562 7.824219 19.296875 7.710938 18.535156 C 7.589844 17.679688 7.441406 16.976562 7.402344 17.035156 C 7.382812 17.066406 7.34375 17.976562 7.3125 19.054688 C 7.28125 20.136719 7.21875 21.21875 7.171875 21.464844 L 7.085938 21.914062 L 6.429688 22.003906 L 5.777344 22.09375 L 5.628906 21.820312 C 5.546875 21.667969 5.292969 21.078125 5.066406 20.507812 C 4.835938 19.941406 4.640625 19.488281 4.632812 19.503906 C 4.621094 19.519531 4.652344 19.96875 4.703125 20.507812 C 4.753906 21.042969 4.78125 21.539062 4.761719 21.609375 C 4.703125 21.839844 4.046875 22.195312 3.71875 22.183594 C 3.410156 22.167969 3.347656 21.980469 3.246094 20.8125 C 3.082031 18.855469 3.066406 18.289062 3.113281 16.605469 L 3.160156 14.941406 L 3.453125 14.824219 C 3.921875 14.636719 4.445312 14.671875 4.589844 14.902344 C 4.65625 15.011719 4.976562 15.871094 5.300781 16.816406 L 5.890625 18.535156 L 5.972656 17.589844 C 6.101562 16.167969 6.53125 14.023438 6.828125 13.347656 C 6.9375 13.09375 6.949219 13.089844 7.507812 13.15625 C 8.175781 13.234375 8.273438 13.332031 8.410156 14.050781 C 8.707031 15.660156 8.808594 16.304688 9.109375 18.496094 C 9.183594 19.023438 9.289062 19.644531 9.34375 19.875 C 9.394531 20.109375 9.441406 20.378906 9.441406 20.480469 C 9.441406 20.582031 9.515625 21.007812 9.605469 21.425781 C 9.773438 22.195312 9.808594 22.445312 9.730469 22.328125 C 9.703125 22.292969 9.644531 22.3125 9.597656 22.375 C 9.523438 22.460938 8.828125 22.738281 8.636719 22.753906 C 8.613281 22.757812 8.574219 22.6875 8.554688 22.601562 Z M 11.210938 22.550781 C 10.894531 22.4375 10.757812 22.328125 10.3125 21.835938 C 9.800781 21.269531 9.71875 20.929688 9.707031 19.328125 C 9.699219 17.707031 9.738281 17.121094 9.921875 16.257812 C 10.089844 15.464844 10.453125 14.796875 11.054688 14.175781 C 11.464844 13.753906 11.5 13.75 12.308594 14.082031 C 12.617188 14.207031 12.714844 14.300781 12.796875 14.539062 C 13.007812 15.148438 13.074219 18.519531 12.886719 18.976562 C 12.820312 19.136719 11.820312 19.148438 11.363281 18.992188 C 11.21875 18.945312 11.085938 18.929688 11.066406 18.960938 C 11.046875 18.988281 11.03125 19.332031 11.03125 19.71875 C 11.035156 20.554688 11.175781 21.097656 11.496094 21.503906 C 11.691406 21.75 11.75 21.773438 12.019531 21.714844 C 12.1875 21.675781 12.398438 21.578125 12.492188 21.496094 C 12.722656 21.292969 13.335938 21.472656 13.542969 21.804688 L 13.6875 22.035156 L 13.335938 22.234375 C 12.691406 22.601562 11.75 22.742188 11.210938 22.550781 Z M 11.628906 16.894531 C 11.628906 16.347656 11.601562 15.902344 11.570312 15.902344 C 11.5 15.902344 11.242188 16.820312 11.164062 17.34375 C 11.117188 17.660156 11.125 17.714844 11.253906 17.789062 C 11.609375 18.007812 11.628906 17.96875 11.628906 16.894531 Z M 15.4375 22.390625 C 14.457031 22.203125 14.101562 21.929688 13.699219 21.03125 C 13.398438 20.367188 13.382812 20.296875 13.34375 19.484375 C 13.3125 18.785156 13.335938 18.476562 13.460938 17.738281 C 13.84375 15.542969 13.972656 15.152344 14.703125 14.011719 C 15.035156 13.496094 15.117188 13.417969 15.328125 13.417969 C 15.460938 13.417969 15.699219 13.507812 15.859375 13.617188 C 16.015625 13.726562 16.183594 13.8125 16.226562 13.8125 C 16.269531 13.8125 16.375 13.910156 16.460938 14.027344 C 16.609375 14.238281 16.613281 14.277344 16.566406 15.34375 C 16.542969 15.949219 16.492188 16.492188 16.460938 16.550781 C 16.425781 16.613281 16.390625 17.246094 16.382812 17.960938 L 16.363281 19.257812 L 15.992188 19.414062 C 15.660156 19.554688 15.5625 19.554688 15.132812 19.433594 C 14.566406 19.269531 14.523438 19.308594 14.5625 19.945312 C 14.597656 20.457031 14.953125 21.320312 15.210938 21.519531 C 15.578125 21.804688 16.328125 21.621094 16.511719 21.199219 C 16.632812 20.917969 16.761719 20.910156 17.042969 21.167969 C 17.320312 21.421875 17.335938 21.777344 17.078125 21.957031 C 16.441406 22.398438 16.039062 22.507812 15.4375 22.390625 Z M 15.296875 18.160156 C 15.316406 18.039062 15.335938 17.445312 15.332031 16.84375 C 15.332031 15.796875 15.328125 15.761719 15.230469 16.039062 C 15.101562 16.390625 14.742188 17.933594 14.742188 18.128906 C 14.742188 18.292969 14.839844 18.367188 15.082031 18.378906 C 15.207031 18.382812 15.265625 18.324219 15.296875 18.160156 Z M 21.523438 22.214844 C 21.179688 21.855469 20.894531 20.351562 20.777344 18.28125 C 20.714844 17.144531 20.722656 16.59375 20.8125 16.378906 C 20.875 16.226562 21.230469 16.296875 21.546875 16.523438 C 22.136719 16.9375 22.117188 16.871094 22.175781 18.910156 C 22.234375 20.976562 22.269531 21.394531 22.378906 21.339844 C 22.527344 21.265625 23.066406 19.964844 23.148438 19.488281 C 23.195312 19.210938 23.222656 18.519531 23.214844 17.855469 C 23.195312 16.261719 23.265625 16.160156 24.035156 16.691406 C 24.648438 17.117188 24.652344 17.132812 24.558594 18.238281 C 24.476562 19.230469 24.390625 19.628906 24.199219 19.890625 C 24.132812 19.980469 24.011719 20.246094 23.925781 20.484375 C 23.84375 20.722656 23.734375 20.917969 23.683594 20.917969 C 23.636719 20.917969 23.585938 20.988281 23.570312 21.066406 C 23.546875 21.199219 23.550781 21.199219 23.613281 21.066406 C 23.652344 20.988281 23.683594 20.964844 23.683594 21.019531 C 23.683594 21.238281 23.035156 22.171875 22.820312 22.261719 C 22.46875 22.414062 21.683594 22.382812 21.523438 22.214844 Z M 21.523438 22.214844 "/>
<path style=" stroke:none;fill-rule:nonzero;fill:rgb(1.176471%,1.176471%,1.176471%);fill-opacity:1;" d="M 25.152344 26.335938 C 25.027344 26.195312 24.800781 24.335938 24.707031 22.660156 C 24.664062 21.90625 24.640625 21.789062 24.46875 21.550781 C 24.199219 21.167969 24.246094 20.671875 24.554688 20.671875 C 24.675781 20.671875 24.734375 20.414062 24.777344 19.710938 C 24.851562 18.460938 25.136719 16.804688 25.421875 15.957031 C 25.75 14.984375 26.589844 13.914062 27.027344 13.914062 C 27.167969 13.914062 27.554688 14.101562 28.023438 14.402344 C 28.097656 14.445312 28.242188 14.535156 28.34375 14.597656 C 28.472656 14.675781 28.578125 14.871094 28.6875 15.230469 C 28.976562 16.183594 28.964844 17.367188 28.660156 18.585938 C 28.390625 19.664062 26.988281 21.597656 26.273438 21.871094 L 25.9375 22 L 25.941406 22.949219 C 25.941406 24.128906 26.035156 25.25 26.179688 25.8125 C 26.238281 26.046875 26.265625 26.273438 26.238281 26.3125 C 26.1875 26.394531 25.222656 26.414062 25.152344 26.335938 Z M 26.628906 19.570312 C 26.902344 19.179688 27.199219 18.644531 27.296875 18.363281 C 27.503906 17.769531 27.605469 16.863281 27.550781 16.132812 C 27.488281 15.332031 27.433594 15.285156 27.132812 15.796875 C 26.671875 16.578125 26.429688 17.425781 26.171875 19.179688 C 26.109375 19.589844 26.046875 20.003906 26.027344 20.097656 C 25.96875 20.421875 26.132812 20.277344 26.628906 19.570312 Z M 18.265625 21.007812 C 18.222656 19.996094 18.175781 19.132812 18.15625 19.089844 C 18.136719 19.042969 17.894531 18.976562 17.609375 18.941406 C 17.03125 18.859375 16.925781 18.777344 16.925781 18.378906 C 16.925781 17.933594 17.140625 17.773438 17.636719 17.851562 L 18.054688 17.914062 L 18.050781 17.53125 C 18.050781 17.316406 18.019531 16.808594 17.984375 16.398438 C 17.730469 13.394531 17.683594 11.265625 17.855469 10.585938 C 17.90625 10.375 17.960938 10.335938 18.1875 10.335938 C 18.445312 10.335938 19.058594 10.714844 19.148438 10.929688 C 19.179688 11.011719 19.234375 13.980469 19.253906 16.746094 C 19.257812 16.910156 19.238281 17.1875 19.210938 17.367188 C 19.171875 17.652344 19.179688 17.6875 19.308594 17.6875 C 19.429688 17.6875 19.449219 17.640625 19.433594 17.417969 C 19.414062 17.183594 19.4375 17.136719 19.589844 17.113281 C 19.734375 17.085938 19.859375 17.210938 20.21875 17.726562 C 20.464844 18.085938 20.644531 18.410156 20.617188 18.449219 C 20.515625 18.601562 20.0625 18.78125 19.777344 18.78125 C 19.140625 18.789062 19.179688 18.648438 19.21875 20.769531 C 19.257812 22.882812 19.292969 22.738281 18.679688 22.808594 L 18.34375 22.847656 Z M 8.515625 22.285156 C 8.472656 22.027344 8.367188 21.566406 8.277344 21.265625 C 8.105469 20.679688 7.882812 19.570312 7.648438 18.136719 C 7.570312 17.644531 7.480469 17.175781 7.453125 17.097656 C 7.378906 16.890625 7.332031 17.542969 7.292969 19.429688 C 7.273438 20.304688 7.21875 21.21875 7.171875 21.464844 L 7.085938 21.914062 L 6.429688 22.003906 L 5.777344 22.09375 L 5.628906 21.820312 C 5.546875 21.667969 5.292969 21.078125 5.066406 20.507812 C 4.835938 19.941406 4.644531 19.488281 4.632812 19.503906 C 4.621094 19.519531 4.652344 19.949219 4.699219 20.464844 C 4.746094 20.976562 4.773438 21.476562 4.753906 21.570312 C 4.710938 21.828125 4.085938 22.199219 3.71875 22.183594 C 3.410156 22.167969 3.347656 21.980469 3.25 20.8125 C 3.082031 18.820312 3.066406 18.359375 3.113281 16.644531 L 3.164062 14.941406 L 3.453125 14.824219 C 3.921875 14.636719 4.445312 14.671875 4.589844 14.902344 C 4.65625 15.011719 4.976562 15.871094 5.300781 16.816406 L 5.890625 18.535156 L 5.972656 17.589844 C 6.097656 16.199219 6.464844 14.335938 6.78125 13.496094 L 6.90625 13.167969 L 7.488281 13.1875 C 7.972656 13.207031 8.097656 13.246094 8.207031 13.40625 C 8.371094 13.65625 8.683594 15.4375 9.148438 18.753906 C 9.203125 19.148438 9.289062 19.660156 9.34375 19.886719 C 9.398438 20.113281 9.441406 20.378906 9.441406 20.480469 C 9.441406 20.582031 9.515625 21.007812 9.605469 21.425781 C 9.773438 22.195312 9.808594 22.445312 9.730469 22.328125 C 9.703125 22.292969 9.644531 22.3125 9.597656 22.375 C 9.527344 22.460938 8.828125 22.738281 8.636719 22.753906 C 8.613281 22.757812 8.558594 22.546875 8.515625 22.285156 Z M 11.210938 22.550781 C 10.894531 22.4375 10.757812 22.328125 10.3125 21.835938 C 9.800781 21.273438 9.714844 20.925781 9.707031 19.378906 C 9.695312 17.796875 9.742188 17.109375 9.917969 16.273438 C 10.082031 15.496094 10.472656 14.773438 11.039062 14.195312 C 11.378906 13.847656 11.410156 13.835938 11.761719 13.914062 C 12.382812 14.046875 12.691406 14.234375 12.796875 14.535156 C 13 15.128906 13.074219 18.527344 12.890625 18.972656 C 12.824219 19.132812 11.730469 19.140625 11.367188 18.984375 C 11.242188 18.929688 11.117188 18.910156 11.089844 18.941406 C 11.058594 18.96875 11.03125 19.316406 11.03125 19.707031 C 11.035156 20.554688 11.175781 21.097656 11.496094 21.503906 C 11.691406 21.75 11.75 21.773438 12.019531 21.714844 C 12.1875 21.675781 12.398438 21.578125 12.492188 21.496094 C 12.722656 21.292969 13.335938 21.472656 13.542969 21.804688 L 13.6875 22.035156 L 13.335938 22.234375 C 12.691406 22.601562 11.75 22.742188 11.210938 22.550781 Z M 11.640625 17.515625 C 11.671875 16.941406 11.621094 15.902344 11.5625 15.902344 C 11.5 15.902344 11.238281 16.839844 11.164062 17.34375 C 11.117188 17.660156 11.125 17.714844 11.253906 17.789062 C 11.542969 17.964844 11.617188 17.910156 11.640625 17.515625 Z M 15.4375 22.390625 C 14.457031 22.203125 14.101562 21.929688 13.699219 21.03125 C 13.394531 20.359375 13.382812 20.304688 13.34375 19.433594 C 13.316406 18.8125 13.328125 18.425781 13.386719 18.1875 C 13.433594 17.996094 13.519531 17.515625 13.578125 17.121094 C 13.78125 15.710938 14.003906 15.105469 14.710938 14 C 15.035156 13.496094 15.117188 13.417969 15.328125 13.417969 C 15.460938 13.417969 15.699219 13.507812 15.859375 13.617188 C 16.015625 13.726562 16.183594 13.8125 16.226562 13.8125 C 16.269531 13.8125 16.375 13.910156 16.460938 14.027344 C 16.609375 14.238281 16.613281 14.277344 16.566406 15.34375 C 16.542969 15.949219 16.492188 16.492188 16.460938 16.550781 C 16.425781 16.613281 16.390625 17.246094 16.382812 17.960938 L 16.363281 19.257812 L 15.992188 19.414062 C 15.660156 19.554688 15.5625 19.554688 15.132812 19.433594 C 14.59375 19.277344 14.546875 19.308594 14.542969 19.820312 C 14.542969 20.214844 14.777344 20.917969 15.050781 21.328125 C 15.242188 21.613281 15.324219 21.664062 15.582031 21.664062 C 16.003906 21.664062 16.390625 21.46875 16.511719 21.199219 C 16.632812 20.917969 16.761719 20.910156 17.042969 21.167969 C 17.378906 21.472656 17.339844 21.785156 16.9375 22.046875 C 16.375 22.410156 15.992188 22.496094 15.4375 22.390625 Z M 15.296875 18.160156 C 15.316406 18.039062 15.335938 17.445312 15.332031 16.84375 C 15.332031 15.796875 15.328125 15.761719 15.230469 16.039062 C 15.101562 16.390625 14.742188 17.933594 14.742188 18.128906 C 14.742188 18.292969 14.839844 18.367188 15.082031 18.378906 C 15.207031 18.382812 15.265625 18.324219 15.296875 18.160156 Z M 21.523438 22.214844 C 21.179688 21.851562 20.894531 20.339844 20.773438 18.1875 C 20.710938 17.136719 20.722656 16.589844 20.8125 16.378906 C 20.875 16.226562 21.230469 16.296875 21.546875 16.523438 C 22.136719 16.9375 22.117188 16.871094 22.175781 18.910156 C 22.234375 20.976562 22.269531 21.394531 22.378906 21.339844 C 22.527344 21.265625 23.066406 19.964844 23.148438 19.488281 C 23.191406 19.226562 23.222656 18.589844 23.21875 18.078125 C 23.210938 17.5625 23.207031 17.042969 23.207031 16.917969 C 23.207031 16.632812 23.335938 16.398438 23.488281 16.398438 C 23.65625 16.398438 24.441406 16.953125 24.550781 17.148438 C 24.621094 17.28125 24.625 17.476562 24.558594 18.238281 C 24.476562 19.230469 24.390625 19.628906 24.199219 19.890625 C 24.132812 19.980469 24.011719 20.246094 23.925781 20.484375 C 23.84375 20.722656 23.734375 20.917969 23.683594 20.917969 C 23.636719 20.917969 23.585938 20.988281 23.570312 21.066406 C 23.546875 21.199219 23.550781 21.199219 23.613281 21.066406 C 23.652344 20.988281 23.683594 20.964844 23.683594 21.019531 C 23.683594 21.238281 23.035156 22.171875 22.816406 22.261719 C 22.46875 22.414062 21.683594 22.382812 21.523438 22.214844 Z M 21.523438 22.214844 "/>
</g>
</svg>
