<?xml version="1.0" encoding="UTF-8" standalone="no"?>
<svg
   xmlns:dc="http://purl.org/dc/elements/1.1/"
   xmlns:cc="http://creativecommons.org/ns#"
   xmlns:rdf="http://www.w3.org/1999/02/22-rdf-syntax-ns#"
   xmlns:svg="http://www.w3.org/2000/svg"
   xmlns="http://www.w3.org/2000/svg"
   id="svg6567"
   version="1.1"
   viewBox="0 0 84.39193 25.299412"
   height="25.299412mm"
   width="84.39193mm">
  <defs
     id="defs6561" />
  <metadata
     id="metadata6564">
    <rdf:RDF>
      <cc:Work
         rdf:about="">
        <dc:format>image/svg+xml</dc:format>
        <dc:type
           rdf:resource="http://purl.org/dc/dcmitype/StillImage" />
        <dc:title></dc:title>
      </cc:Work>
    </rdf:RDF>
  </metadata>
  <g
     transform="translate(-0.01662288,-271.68446)"
     id="layer1">
    <g
       transform="matrix(0.35277777,0,0,0.35277777,-37.545678,271.53444)"
       id="g302">
      <path
         id="path304"
         style="fill:#ffffff;fill-opacity:1;fill-rule:nonzero;stroke:none"
         d="m 200.3,0.80000001 h 9.93047 c 5.80838,0 9.32152,3.41945429 9.32152,8.38468759 v 0.093684 c 0,5.6210194 -4.3563,8.5252134 -9.83678,8.5252134 h -4.07524 V 25.11091 H 200.3 Z M 209.90257,13.07256 c 2.66999,0 4.21578,-1.592621 4.21578,-3.700504 V 9.278372 c 0,-2.3889341 -1.68631,-3.7005048 -4.3563,-3.7005048 h -4.12208 v 7.4478508 h 4.2626 v 0.04684 z" />
    </g>
    <g
       transform="matrix(0.35277777,0,0,0.35277777,-53.504494,271.68446)"
       id="g306">
      <path
         id="path308"
         style="fill:#ffffff;fill-opacity:1;fill-rule:nonzero;stroke:none"
         d="m 285.39999,12.600452 v -0.04684 C 285.39999,5.6678615 290.59943,0 298.09412,0 c 4.59051,0 7.30734,1.5457804 9.6026,3.7473466 l -3.41944,3.9347136 c -1.87369,-1.686306 -3.79419,-2.7636675 -6.22998,-2.7636675 -4.07525,0 -7.02627,3.4194531 -7.02627,7.5883773 v 0.04684 c 0,4.168922 2.9042,7.635217 7.02627,7.635217 2.76367,0 4.49683,-1.124204 6.37049,-2.857351 l 3.41946,3.419453 c -2.48264,2.669985 -5.29312,4.356291 -9.97733,4.356291 -7.1668,0 -12.45993,-5.527337 -12.45993,-12.50677 z" />
    </g>
    <g
       transform="matrix(0.35277777,0,0,0.35277777,-62.768485,269.39659)"
       id="g310">
      <path
         id="path312"
         style="fill:#ffffff;fill-opacity:1;fill-rule:nonzero;stroke:none"
         d="m 334.79999,21.943102 c 0,-5.38681 4.30945,-9.743101 10.11783,-9.743101 5.76153,0 10.02414,4.262607 10.02414,9.602575 v 0.09369 c 0,5.339968 -4.30945,9.696259 -10.11783,9.696259 -5.76154,-2e-6 -10.02414,-4.309448 -10.02414,-9.649418 z m 14.94256,0 c 0,-2.810511 -1.96737,-5.199444 -4.91839,-5.199444 -2.9979,0 -4.82471,2.342091 -4.82471,5.058918 v 0.09369 c 0,2.763668 1.96735,5.152601 4.87152,5.152601 3.04474,0 4.87158,-2.342092 4.87158,-5.10576 z" />
    </g>
    <g
       transform="matrix(0.35277777,0,0,0.35277777,-71.657425,269.32158)"
       id="g314">
      <path
         id="path316"
         style="fill:#ffffff;fill-opacity:1;fill-rule:nonzero;stroke:none"
         d="m 382.20001,12.974734 h 5.29312 v 2.623143 C 388.711,14.052096 390.25677,12.6 392.92679,12.6 c 3.98154,0 6.32364,2.623143 6.32364,6.885748 v 12.038353 h -5.29312 V 21.218897 c 0,-2.482617 -1.17106,-3.794188 -3.18522,-3.794188 -2.01422,0 -3.27893,1.264729 -3.27893,3.794188 v 10.398888 h -5.29315 z" />
    </g>
    <g
       transform="matrix(0.35277777,0,0,0.35277777,-80.958913,271.45942)"
       id="g318">
      <path
         id="path320"
         style="fill:#ffffff;fill-opacity:1;fill-rule:nonzero;stroke:none"
         d="m 431.84683,1.2 h 1.82682 V 17.173063 L 449.17831,1.2000004 h 2.48261 L 441.02783,11.926781 452.08249,25.51091 h -2.34207 l -10.07102,-12.272559 -6.04257,6.089436 v 6.183123 h -1.82684 z" />
    </g>
    <g
       transform="matrix(0.35277777,0,0,0.35277777,-89.153988,268.96527)"
       id="g322">
      <path
         id="path324"
         style="fill:#ffffff;fill-opacity:1;fill-rule:nonzero;stroke:none"
         d="m 475.5,23.774681 c 0,-5.199442 3.60681,-9.274681 8.38467,-9.274681 4.96524,0 8.10364,4.028397 8.10364,9.274681 0,0.327894 0,0.421578 -0.0468,0.702629 h -14.70835 c 0.32792,4.40313 3.46628,6.979431 6.93259,6.979431 2.76367,0 4.63733,-1.217888 6.08945,-2.763668 l 1.17105,1.03052 c -1.82684,1.920515 -3.93472,3.325769 -7.30734,3.325769 C 479.52838,33.002525 475.5,29.302017 475.5,23.774681 Z m 14.70831,-0.889992 c -0.23419,-3.55998 -2.29522,-6.885749 -6.37048,-6.885749 -3.51312,0 -6.22995,2.951034 -6.51102,6.885749 z" />
    </g>
    <g
       transform="matrix(0.35277777,0,0,0.35277777,-45.384437,269.24657)"
       id="g326">
      <path
         id="path328"
         style="fill:#ffffff;fill-opacity:1;fill-rule:nonzero;stroke:none"
         d="M 256.01202,13 251.84311,25.319401 247.90839,13 h -5.80838 l 7.35415,19.392521 -2.85734,8.525211 h 5.24629 L 261.49252,13 Z" />
    </g>
    <g
       transform="matrix(0.35277777,0,0,0.35277777,-12.116579,261.23903)"
       id="g330">
      <path
         id="path332"
         style="fill:#ffffff;fill-opacity:1;fill-rule:nonzero;stroke:none"
         d="m 65.777359,55.699997 c -0.60894,0 -1.077362,0.468422 -1.077362,1.077362 0,0.608948 0.468422,1.077362 1.077362,1.077362 0.562103,0 1.077362,-0.468414 1.077362,-1.077362 -0.04684,-0.60894 -0.515259,-1.077362 -1.077362,-1.077362 z" />
    </g>
    <g
       transform="matrix(0.35277777,0,0,0.35277777,-14.648234,254.07538)"
       id="g334">
      <path
         id="path336"
         style="fill:#ffffff;fill-opacity:1;fill-rule:nonzero;stroke:none"
         d="m 79.277359,96.054718 c 0.608948,0 1.077362,-0.468414 1.077362,-1.077362 0,-0.608948 -0.468414,-1.077362 -1.077362,-1.077362 -0.562103,0 -1.077362,0.468414 -1.077362,1.077362 0.04684,0.608948 0.515259,1.077362 1.077362,1.077362 z" />
    </g>
    <g
       transform="matrix(0.35277777,0,0,0.35277777,-6.0968601,264.93337)"
       id="g338">
      <path
         id="path340"
         style="fill:#ffffff;fill-opacity:1;fill-rule:nonzero;stroke:none"
         d="M 59.908791,36.046841 43.935722,36 32.646843,47.288879 32.600002,63.261944 43.888885,74.597672 59.86195,74.644508 71.19767,63.355633 71.244507,47.382568 Z M 45.528347,61.013538 h -1.920513 c -1.639465,0 -2.623146,-1.171043 -2.997879,-2.857349 -0.562103,-2.248409 -0.515259,-3.606819 0,-5.761547 0.468418,-1.873676 1.873672,-2.85735 3.513138,-2.85735 h 2.107879 5.667866 v -0.702629 h -5.667866 v -2.154724 c 0,-1.639465 0.421578,-2.529457 2.810509,-2.951034 0.79631,-0.140526 1.733147,-0.234207 2.716831,-0.234207 0.983677,0 1.967354,0.04684 2.951035,0.234207 1.545784,0.234207 2.810508,1.405254 2.810508,2.951034 v 5.386811 c 0,1.592624 -1.264724,2.857353 -2.810508,2.857353 h -5.621021 c -1.920514,0 -3.513138,1.639461 -3.513138,3.513134 v 2.576301 z m 17.65937,-2.904194 c -0.562099,1.733147 -1.171043,2.85735 -2.810508,2.85735 H 57.5667 51.945679 v 0.74947 H 57.5667 v 2.154724 c 0,1.639457 -1.405258,2.435768 -2.810513,2.857353 -2.154724,0.608948 -3.841026,0.515259 -5.621017,0 -1.49894,-0.421585 -2.810509,-1.358414 -2.810509,-2.857353 v -5.386807 c 0,-1.545784 1.264725,-2.857353 2.810509,-2.857353 h 5.621017 c 1.873673,0 3.513138,-1.639465 3.513138,-3.559978 v -2.529458 h 2.107884 c 1.639465,0 2.435772,1.217885 2.810508,2.85735 0.562104,2.248409 0.562104,3.981556 0,5.714702 z" />
    </g>
    <g
       transform="matrix(0.35277777,0,0,0.35277777,-11.178932,270.7093)"
       id="g342">
      <path
         id="path344"
         style="fill:#ffffff;fill-opacity:1;fill-rule:nonzero;stroke:none"
         d="m 66.304703,10.446285 2.061035,3.606821 h -4.168923 l 2.107888,-3.606821 m 0,-5.2462852 -6.604702,11.4294082 h 13.2094 z" />
    </g>
    <g
       transform="matrix(0.35277777,0,0,0.35277777,-22.749539,259.83255)"
       id="g346">
      <path
         id="path348"
         style="fill:#ffffff;fill-opacity:1;fill-rule:nonzero;stroke:none"
         d="m 124.02314,67.696823 3.60682,2.061035 -3.60682,2.061043 v -4.122078 m -2.62315,-4.496822 v 13.209392 l 11.42942,-6.60469 z" />
    </g>
    <g
       transform="matrix(0.35277777,0,0,0.35277777,-11.178932,248.26195)"
       id="g350">
      <path
         id="path352"
         style="fill:#ffffff;fill-opacity:1;fill-rule:nonzero;stroke:none"
         d="m 68.365738,127.4763 -2.061043,3.60681 -2.061043,-3.60681 h 4.122086 m 4.543663,-2.57631 h -13.2094 l 6.604702,11.42942 z" />
    </g>
    <g
       transform="matrix(0.35277777,0,0,0.35277777,-0.32093209,259.83255)"
       id="g354">
      <path
         id="path356"
         style="fill:#ffffff;fill-opacity:1;fill-rule:nonzero;stroke:none"
         d="m 10.606265,67.696823 v 4.168915 l -3.606821,-2.061035 3.606821,-2.10788 M 13.229408,63.200001 1.8,69.804703 l 11.429407,6.60469 z" />
    </g>
    <g
       transform="matrix(0.35277777,0,0,0.35277777,-6.0968601,271.0281)"
       id="g358">
      <path
         id="path360"
         style="fill:#ffffff;fill-opacity:1;fill-rule:nonzero;stroke:none"
         d="M 41.640472,7.6220818 41.078369,11.744163 37.799442,9.2147036 41.640472,7.6220818 M 44.825718,3.5 32.599998,8.5120764 43.045727,16.568872 Z" />
    </g>
    <g
       transform="matrix(0.35277777,0,0,0.35277777,-16.729825,271.0281)"
       id="g362">
      <path
         id="path364"
         style="fill:#ffffff;fill-opacity:1;fill-rule:nonzero;stroke:none"
         d="M 92.4384,7.6689234 96.279434,9.2615452 92.953659,11.791003 92.4384,7.6689234 M 89.300003,3.5 90.986313,16.615713 101.47888,8.6057596 Z" />
    </g>
    <g
       transform="matrix(0.35277777,0,0,0.35277777,-22.430741,264.91462)"
       id="g366">
      <path
         id="path368"
         style="fill:#ffffff;fill-opacity:1;fill-rule:nonzero;stroke:none"
         d="m 127.05416,41.252602 1.59261,3.84103 -4.12207,-0.562104 2.52946,-3.278926 m 0.70263,-5.152604 -8.05679,10.445729 13.06886,1.779987 z" />
    </g>
    <g
       transform="matrix(0.35277777,0,0,0.35277777,-22.393236,254.30042)"
       id="g370">
      <path
         id="path372"
         style="fill:#ffffff;fill-opacity:1;fill-rule:nonzero;stroke:none"
         d="m 128.49362,95.885239 -1.5926,3.841034 -2.52947,-3.325776 4.12207,-0.515258 m 4.1221,-3.185242 -13.11572,1.68631 8.00996,10.492573 z" />
    </g>
    <g
       transform="matrix(0.35277777,0,0,0.35277777,-16.654813,248.5995)"
       id="g374">
      <path
         id="path376"
         style="fill:#ffffff;fill-opacity:1;fill-rule:nonzero;stroke:none"
         d="m 92.647346,127.9247 3.278931,2.52946 -3.841026,1.59262 0.562095,-4.12208 m -1.967353,-4.82471 -1.779991,13.06888 12.225718,-5.01207 z" />
    </g>
    <g
       transform="matrix(0.35277777,0,0,0.35277777,-6.0406021,248.61825)"
       id="g378">
      <path
         id="path380"
         style="fill:#ffffff;fill-opacity:1;fill-rule:nonzero;stroke:none"
         d="m 40.778374,127.82471 0.515259,4.12208 -3.841031,-1.59262 3.325772,-2.52946 M 42.792572,123 l -10.492569,8.00995 12.178879,5.10577 z" />
    </g>
    <g
       transform="matrix(0.35277777,0,0,0.35277777,0.01662288,254.35668)"
       id="g382">
      <path
         id="path384"
         style="fill:#ffffff;fill-opacity:1;fill-rule:nonzero;stroke:none"
         d="M 4.1220813,95.585243 8.2441626,96.147339 5.714704,99.42627 4.1220813,95.585243 M 0,92.399994 5.0120759,104.62572 13.068872,94.179985 Z" />
    </g>
    <g
       transform="matrix(0.35277777,0,0,0.35277777,0.01662288,264.97088)"
       id="g386">
      <path
         id="path388"
         style="fill:#ffffff;fill-opacity:1;fill-rule:nonzero;stroke:none"
         d="M 5.7615457,40.952599 8.2910051,44.27837 4.1689229,44.793633 5.7615457,40.952599 M 5.1057596,35.799999 0,47.978874 13.115713,46.292572 Z" />
    </g>
    <g
       transform="matrix(0.35277777,0,0,0.35277777,-2.196232,268.68398)"
       id="g390">
      <path
         id="path392"
         style="fill:#ffffff;fill-opacity:1;fill-rule:nonzero;stroke:none"
         d="m 24.58782,27.52309 -4.965235,-4.965232 v -3.934716 c 0,-0.843153 -0.655784,-1.592621 -1.498937,-1.733146 L 11.8,16 l 0.889995,6.323647 c 0.140526,0.843153 0.843153,1.498939 1.733147,1.498939 h 3.934715 l 4.965235,4.965235 c 0.187368,0.187368 0.421577,0.281051 0.655786,0.281051 0.234209,0 0.468418,-0.09369 0.655787,-0.281051 0.32789,-0.327894 0.32789,-0.889996 -0.04684,-1.264731 z m -6.792065,-5.714702 c 0,0.04684 0,0.09368 0,0.09368 l -0.09369,0.09368 c 0,0 -0.234209,-0.187366 -0.608944,-0.515259 -0.374733,-0.327894 -0.79631,-0.749469 -1.264728,-1.217887 -0.234209,-0.281052 -0.515261,-0.515263 -0.74947,-0.74947 -0.04684,-0.04684 -0.04684,-0.04684 -0.09368,-0.09369 -0.140526,-0.140526 -0.281052,-0.281052 -0.421578,-0.421576 -0.327892,-0.374735 -0.51526,-0.608944 -0.51526,-0.608944 l 0.09369,-0.09368 c 0,0 0.04684,0 0.09368,0 0.04684,0 0.140526,0 0.234209,0 0.187368,0 0.468418,0 0.74947,0.09368 0.281051,0.04684 0.562103,0.140524 0.843153,0.281052 0.140524,0.09368 0.281051,0.140524 0.421575,0.234209 0.140526,0.09368 0.234209,0.187366 0.374735,0.327892 0.09368,0.140526 0.234209,0.234211 0.327893,0.374735 0.09368,0.140524 0.187368,0.28105 0.234209,0.421576 0.04684,0.09369 0.09368,0.234211 0.140525,0.327894 0.04684,0.187366 0.140526,0.327894 0.140526,0.515261 0.04684,0.281051 0.09368,0.562101 0.04684,0.749469 0.04684,0.04684 0.04684,0.140522 0.04684,0.187367 z" />
    </g>
    <g
       transform="matrix(0.35277777,0,0,0.35277777,-20.463916,268.66522)"
       id="g394">
      <path
         id="path396"
         style="fill:#ffffff;fill-opacity:1;fill-rule:nonzero;stroke:none"
         d="m 109.4874,28.887823 c 0.18737,0.187367 0.42158,0.28105 0.65579,0.28105 0.23421,0 0.46841,-0.09369 0.65579,-0.28105 l 4.96523,-4.965235 h 3.93472 c 0.84315,0 1.59261,-0.655784 1.73314,-1.498939 l 0.88999,-6.323647 -6.32365,0.889994 c -0.84315,0.140524 -1.49893,0.843153 -1.49893,1.733149 v 3.934713 l -4.96524,4.965235 c -0.42157,0.327892 -0.42157,0.889993 -0.0468,1.26473 z m 6.79207,-7.260485 c 0,-0.187368 0,-0.46842 0.0468,-0.749469 0.0468,-0.187369 0.0937,-0.327895 0.14053,-0.515263 0.0468,-0.09368 0.0937,-0.234207 0.14052,-0.327892 0.0937,-0.140526 0.14053,-0.281052 0.23421,-0.421576 0.0937,-0.140526 0.18738,-0.234209 0.32789,-0.374735 0.0937,-0.09369 0.23421,-0.234209 0.37475,-0.327892 0.14051,-0.09369 0.28105,-0.187366 0.42156,-0.234211 0.28106,-0.140524 0.56211,-0.234207 0.84316,-0.28105 0.28105,-0.04684 0.5621,-0.09368 0.74947,-0.09368 0.0937,0 0.18737,0 0.23422,0 0.0468,0 0.0937,0 0.0937,0 l 0.0937,0.09368 c 0,0 -0.23421,0.234209 -0.51527,0.608942 -0.14052,0.140526 -0.28105,0.281052 -0.42157,0.421578 -0.0468,0.04684 -0.0468,0.04684 -0.0937,0.09369 -0.23421,0.234207 -0.46842,0.515259 -0.74948,0.74947 -0.46841,0.421573 -0.88999,0.889993 -1.26472,1.217886 -0.37474,0.327894 -0.60895,0.51526 -0.60895,0.51526 l -0.0937,-0.09369 c 0,0 0,-0.04684 0,-0.09368 0.0468,2e-6 0.0468,-0.09368 0.0468,-0.187365 z" />
    </g>
    <g
       transform="matrix(0.35277777,0,0,0.35277777,-20.480431,250.68108)"
       id="g398">
      <path
         id="path400"
         style="fill:#ffffff;fill-opacity:1;fill-rule:nonzero;stroke:none"
         d="m 121.6194,125.25623 c -0.23421,0 -0.46841,-0.0937 -0.65578,-0.28106 l -11.38256,-11.38256 c -0.37475,-0.37474 -0.37475,-0.93683 0,-1.31157 0.37473,-0.37474 0.93683,-0.37474 1.31156,0 l 11.38257,11.38257 c 0.37474,0.37473 0.37474,0.93682 0,1.31156 -0.18737,0.18738 -0.42158,0.28106 -0.65579,0.28106 z" />
    </g>
    <g
       transform="matrix(0.35277777,0,0,0.35277777,-2.158728,250.68108)"
       id="g402">
      <path
         id="path404"
         style="fill:#ffffff;fill-opacity:1;fill-rule:nonzero;stroke:none"
         d="m 12.536837,125.25623 c -0.234209,0 -0.468418,-0.0937 -0.655785,-0.28106 -0.374735,-0.37474 -0.374735,-0.93683 0,-1.31156 l 11.382565,-11.38257 c 0.374734,-0.37474 0.936836,-0.37474 1.311571,0 0.374735,0.37474 0.374735,0.93683 0,1.31157 l -11.382565,11.38256 c -0.140526,0.18738 -0.374735,0.28106 -0.655786,0.28106 z" />
    </g>
    <g
       transform="matrix(0.35277777,0,0,0.35277777,-37.620684,257.48843)"
       id="g406">
      <path
         id="path408"
         style="fill:#ffffff;fill-opacity:1;fill-rule:nonzero;stroke:none"
         d="m 200.74683,110.17559 14.80203,-14.005714 c 5.57417,-5.19944 6.88574,-8.197319 6.88574,-11.19519 0,-4.356293 -3.74734,-7.77575 -8.75943,-7.77575 -4.87154,0 -8.24415,2.763665 -10.67993,6.88575 l -1.3584,-0.843155 c 2.62314,-4.449974 6.2768,-7.541534 12.13202,-7.541534 6.13629,0 10.3989,4.075241 10.3989,9.134155 v 0.09369 c 0,3.747345 -1.59263,6.745224 -7.54154,12.366242 l -13.16257,12.459926 h 21.12567 v 1.59262 h -23.88934 v -1.17105 h 0.0468 v 1e-5 z" />
    </g>
    <g
       transform="matrix(0.35277777,0,0,0.35277777,-49.191299,257.52594)"
       id="g410">
      <path
         id="path412"
         style="fill:#ffffff;fill-opacity:1;fill-rule:nonzero;stroke:none"
         d="m 262.39999,93.721474 v -0.09368 c 0,-9.602577 5.43366,-18.127792 14.47412,-18.127792 9.08732,0 14.47416,8.431534 14.47416,18.127785 v 0.09368 c 0,9.602573 -5.43369,18.127793 -14.47416,18.127793 -9.08731,1e-5 -14.47412,-8.47837 -14.47412,-18.127786 z m 27.16825,0.04684 v -0.09367 c 0,-8.618904 -4.77783,-16.628861 -12.74097,-16.628861 -7.9631,0 -12.64728,7.822586 -12.64728,16.535172 v 0.09369 c 0,8.618895 4.77787,16.628845 12.74097,16.628845 8.00995,-0.0468 12.64728,-7.91627 12.64728,-16.535171 z" />
    </g>
    <g
       transform="matrix(0.35277777,0,0,0.35277777,-62.112125,257.39467)"
       id="g414">
      <path
         id="path416"
         style="fill:#ffffff;fill-opacity:1;fill-rule:nonzero;stroke:none"
         d="m 338.4668,78.073669 -6.60471,2.669983 -0.5621,-1.358413 7.54153,-3.185257 h 1.31156 v 35.412428 h -1.63947 l -0.0468,-33.538741 z" />
    </g>
    <g
       transform="matrix(0.35277777,0,0,0.35277777,-68.581919,257.48843)"
       id="g418">
      <path
         id="path420"
         style="fill:#ffffff;fill-opacity:1;fill-rule:nonzero;stroke:none"
         d="m 365.79999,102.21248 v -0.0937 c 0,-4.356295 3.74734,-7.728907 8.61889,-8.899951 -4.16894,-1.311577 -7.26049,-4.122078 -7.26049,-8.337852 v -0.09367 c 0,-5.293137 5.29312,-9.087318 11.61676,-9.087318 6.32367,0 11.61676,3.794181 11.61676,9.087318 v 0.09367 c 0,4.215774 -3.09156,7.026275 -7.26047,8.337852 4.87155,1.217888 8.57205,4.590508 8.57205,8.899951 v 0.0937 c 0,5.38681 -5.10577,9.64943 -12.8815,9.64943 -7.91623,-0.0468 -13.022,-4.30947 -13.022,-9.64943 z m 24.12353,0.0937 v -0.0937 c 0,-4.777864 -5.0589,-8.19732 -11.24203,-8.19732 -6.18314,0 -11.14835,3.372612 -11.14835,8.15047 v 0.0937 c 0,4.30945 4.26261,8.0568 11.19519,8.0568 6.97943,-0.0468 11.19519,-3.7005 11.19519,-8.00995 z m -1.3584,-17.425173 v -0.09367 c 0,-4.309448 -4.35629,-7.541534 -9.88363,-7.541534 -5.52732,0 -9.83679,3.185241 -9.83679,7.49469 v 0.09368 c 0,4.637344 4.49682,7.68206 9.88363,7.68206 5.43366,0 9.83679,-3.044723 9.83679,-7.635223 z" />
    </g>
  </g>
</svg>
