<svg xmlns="http://www.w3.org/2000/svg" viewBox="0 0 21.76 21.76"><defs><style>.cls-1{fill:#6262e8;}.cls-2{fill:none;stroke:#fff;stroke-width:1px;}</style></defs><title>altAsset 4</title><g id="Layer_2" data-name="Layer 2"><g id="Layer_1-2" data-name="Layer 1"><path class="cls-1" d="M21.76,10.88A10.8,10.8,0,0,1,20.93,15a10.68,10.68,0,0,1-2.36,3.53A10.86,10.86,0,0,1,6.72,20.93,10.9,10.9,0,0,1,.83,15a10.84,10.84,0,0,1,0-8.32A10.9,10.9,0,0,1,6.72.83,10.87,10.87,0,0,1,18.57,3.19a10.68,10.68,0,0,1,2.36,3.53A10.8,10.8,0,0,1,21.76,10.88Z"/><path class="cls-2" d="M12.57,6.78a3.91,3.91,0,0,1,0,5.54A3.77,3.77,0,0,1,9.8,13.47,3.74,3.74,0,0,1,7,12.32,3.77,3.77,0,0,1,5.88,9.55,3.75,3.75,0,0,1,7,6.78,3.74,3.74,0,0,1,9.8,5.63,3.77,3.77,0,0,1,12.57,6.78Z"/><line class="cls-2" x1="12.64" y1="12.39" x2="16.62" y2="16.37"/></g></g></svg>