<svg xmlns="http://www.w3.org/2000/svg" viewBox="0 0 493.03 91"><defs><style>.cls-1{fill:#29abe2;}.cls-2,.cls-3{fill:#fff;}.cls-3{font-size:10px;font-family:Rubik-Regular, Rubik;letter-spacing:0.5em;}.cls-4{letter-spacing:0.49em;}.cls-5{letter-spacing:0.47em;}.cls-6{fill:none;}</style></defs><title>altAsset 2</title><g id="Layer_2" data-name="Layer 2"><g id="Layer_1-2" data-name="Layer 1"><g id="_Group_" data-name="&lt;Group&gt;"><g id="_Group_2" data-name="&lt;Group&gt;"><g id="_Group_3" data-name="&lt;Group&gt;"><g id="_Group_4" data-name="&lt;Group&gt;"><path class="cls-1" d="M58,23.14V38.88L44.32,31,58,23.14m2-3.46L40.32,31,60,42.34V19.68Z"/></g><g id="_Group_5" data-name="&lt;Group&gt;"><path class="cls-2" d="M38.4,23.14,52,31,38.4,38.88V23.14m-2-3.46V42.34L56,31,36.4,19.68Z"/></g></g><g id="_Group_6" data-name="&lt;Group&gt;"><text class="cls-3" transform="translate(7.47 85.3)">CONN<tspan class="cls-4" x="47.26" y="0">E</tspan><tspan x="58.24" y="0">C</tspan><tspan class="cls-5" x="69.89" y="0">T</tspan></text></g></g><rect id="_Rectangle_" data-name="&lt;Rectangle&gt;" class="cls-6" width="91" height="91"/></g><g id="_Group_7" data-name="&lt;Group&gt;"><g id="_Group_8" data-name="&lt;Group&gt;"><g id="_Group_9" data-name="&lt;Group&gt;"><g id="_Group_10" data-name="&lt;Group&gt;"><path class="cls-1" d="M177.1,23.14,190.73,31,177.1,38.88V23.14m-2-3.46V42.34L194.73,31,175.1,19.68Z"/></g><g id="_Group_11" data-name="&lt;Group&gt;"><path class="cls-2" d="M167.29,23.14,180.92,31l-13.63,7.87V23.14m-2-3.46V42.34L184.92,31,165.29,19.68Z"/></g></g><g id="_Group_12" data-name="&lt;Group&gt;"><text class="cls-3" transform="translate(150.72 85.3)">SHARE</text></g></g><rect id="_Rectangle_2" data-name="&lt;Rectangle&gt;" class="cls-6" x="134.01" width="91" height="91"/></g><g id="_Group_13" data-name="&lt;Group&gt;"><g id="_Group_14" data-name="&lt;Group&gt;"><g id="_Group_15" data-name="&lt;Group&gt;"><g id="_Group_16" data-name="&lt;Group&gt;"><path class="cls-1" d="M302.83,29l13.63,7.87-13.63,7.87V29m-2-3.47V48.24l19.63-11.33L300.83,25.57Z"/></g><g id="_Group_17" data-name="&lt;Group&gt;"><path class="cls-2" d="M325.21,40.37V56.11l-13.63-7.87,13.63-7.87m2-3.46L307.58,48.24l19.63,11.34V36.91Z"/></g></g><g id="_Group_18" data-name="&lt;Group&gt;"><text class="cls-3" transform="translate(285.12 85.3)">LEARN</text></g></g><rect id="_Rectangle_3" data-name="&lt;Rectangle&gt;" class="cls-6" x="268.02" width="91" height="91"/></g><g id="_Group_19" data-name="&lt;Group&gt;"><g id="_Group_20" data-name="&lt;Group&gt;"><g id="_Group_21" data-name="&lt;Group&gt;"><g id="_Group_22" data-name="&lt;Group&gt;"><path class="cls-1" d="M452.82,23.14V38.88L439.19,31l13.63-7.87m2-3.46L435.19,31l19.63,11.33V19.68Z"/></g><g id="_Group_23" data-name="&lt;Group&gt;"><path class="cls-2" d="M443.25,23.14,456.88,31l-13.63,7.87V23.14m-2-3.46V42.34L460.88,31,441.25,19.68Z"/></g></g><g id="_Group_24" data-name="&lt;Group&gt;"><text class="cls-3" transform="translate(411.26 85.3)">INSPIRE</text></g></g><rect id="_Rectangle_4" data-name="&lt;Rectangle&gt;" class="cls-6" x="402.03" width="91" height="91"/></g></g></g></svg>