<svg xmlns="http://www.w3.org/2000/svg" viewBox="0 0 378.36 72.78"><defs><style>.cls-1{fill:#fff;}</style></defs><title>Asset 1</title><g id="Layer_2" data-name="Layer 2"><g id="Layer_1-2" data-name="Layer 1"><g id="_Group_" data-name="&lt;Group&gt;"><g id="_Group_2" data-name="&lt;Group&gt;"><g id="_Group_3" data-name="&lt;Group&gt;"><g id="_Group_4" data-name="&lt;Group&gt;"><path id="_Path_" data-name="&lt;Path&gt;" class="cls-1" d="M33,25.75a1.14,1.14,0,1,0,1.11,1.14A1.13,1.13,0,0,0,33,25.75Z"/><path id="_Path_2" data-name="&lt;Path&gt;" class="cls-1" d="M39.72,46.89a1.14,1.14,0,1,0-1.12-1.14A1.13,1.13,0,0,0,39.72,46.89Z"/><path id="_Compound_Path_" data-name="&lt;Compound Path&gt;" class="cls-1" d="M44.84,16.11,28,16.07,16.11,27.94l0,16.82L27.94,56.67l16.82,0L56.67,44.84l0-16.82ZM29.69,42.36H27.64c-1.73,0-2.74-1.26-3.16-3a11.16,11.16,0,0,1,0-6,3.72,3.72,0,0,1,3.72-3h8.18v-.75h-6V27.26c0-1.71.46-2.65,3-3.09a16.71,16.71,0,0,1,2.84-.24,18,18,0,0,1,3.1.24,3.32,3.32,0,0,1,3,3.09v5.66a3,3,0,0,1-3,3H33.4a3.78,3.78,0,0,0-3.71,3.69Zm18.57-3c-.6,1.81-1.24,3-3,3H36.38v.75h5.94v2.27c0,1.72-1.48,2.59-3,3a10,10,0,0,1-5.94,0c-1.57-.46-3-1.41-3-3V39.72a3,3,0,0,1,3-3h5.94a3.82,3.82,0,0,0,3.72-3.77V30.28h2.23c1.73,0,2.55,1.3,3,3A10.16,10.16,0,0,1,48.26,39.34Z"/></g><path id="_Compound_Path_2" data-name="&lt;Compound Path&gt;" class="cls-1" d="M36.39,6.36l2.19,3.8H34.2l2.19-3.8m0-5.49-6.95,12h13.9l-7-12Z"/><path id="_Compound_Path_3" data-name="&lt;Compound Path&gt;" class="cls-1" d="M62.62,34.2l3.8,2.19-3.8,2.19V34.2m-2.75-4.76v13.9l12-7-12-6.95Z"/><path id="_Compound_Path_4" data-name="&lt;Compound Path&gt;" class="cls-1" d="M38.58,62.62l-2.19,3.8-2.19-3.8h4.38m4.76-2.75H29.44l7,12,7-12Z"/><path id="_Compound_Path_5" data-name="&lt;Compound Path&gt;" class="cls-1" d="M10.16,34.2v4.38l-3.8-2.19,3.8-2.19m2.75-4.76-12,7,12,7V29.44Z"/><path id="_Compound_Path_6" data-name="&lt;Compound Path&gt;" class="cls-1" d="M25.58,4.35,25,8.69,21.52,6l4.06-1.66M28.94,0,16.07,5.28l11,8.5L28.94,0Z"/><path id="_Compound_Path_7" data-name="&lt;Compound Path&gt;" class="cls-1" d="M47.36,4.39l4,1.7L47.91,8.75l-.55-4.36M44,0l1.76,13.79L56.85,5.39,44,0Z"/><path id="_Compound_Path_8" data-name="&lt;Compound Path&gt;" class="cls-1" d="M66.77,21.52l1.66,4.06L64.09,25l2.68-3.47m.73-5.45-8.5,11,13.78,1.86L67.5,16.07Z"/><path id="_Compound_Path_9" data-name="&lt;Compound Path&gt;" class="cls-1" d="M68.39,47.36l-1.7,4L64,47.91l4.35-.55M72.76,44,59,45.79l8.42,11.06L72.76,44Z"/><path id="_Compound_Path_10" data-name="&lt;Compound Path&gt;" class="cls-1" d="M47.79,64.09l3.47,2.68L47.2,68.43l.59-4.34M45.71,59,43.84,72.78,56.71,67.5l-11-8.5Z"/><path id="_Compound_Path_11" data-name="&lt;Compound Path&gt;" class="cls-1" d="M24.87,64l.56,4.35-4.05-1.7L24.87,64M27,59,15.93,67.39l12.83,5.37L27,59Z"/><path id="_Compound_Path_12" data-name="&lt;Compound Path&gt;" class="cls-1" d="M4.35,47.2l4.34.59L6,51.26,4.35,47.2M0,43.84,5.28,56.71l8.5-11L0,43.84Z"/><path id="_Compound_Path_13" data-name="&lt;Compound Path&gt;" class="cls-1" d="M6.09,21.38l2.66,3.49-4.36.56,1.7-4.05m-.7-5.45L0,28.76,13.81,27,5.39,15.93Z"/></g><g id="_Group_5" data-name="&lt;Group&gt;"><g id="_Group_6" data-name="&lt;Group&gt;"><path id="_Compound_Path_14" data-name="&lt;Compound Path&gt;" class="cls-1" d="M18.81,17.81l-5.27-5.27V8.38A1.84,1.84,0,0,0,12,6.56L5.24,5.63l.93,6.72A1.83,1.83,0,0,0,8,13.93h4.16l5.27,5.27a1,1,0,0,0,.69.29,1,1,0,0,0,.7-.29A1,1,0,0,0,18.81,17.81Zm-7.23-6.06a.67.67,0,0,0,0,.1l-.11.11s-.26-.22-.63-.57-.85-.81-1.34-1.28c-.27-.28-.53-.54-.77-.8l-.09-.09L8.2,8.77c-.34-.37-.56-.63-.56-.63L7.75,8h.1A1.7,1.7,0,0,1,8.1,8a3.38,3.38,0,0,1,.79.07,3.88,3.88,0,0,1,.9.32,3.87,3.87,0,0,1,.43.27A3,3,0,0,1,10.6,9a2.37,2.37,0,0,1,.33.38,2.72,2.72,0,0,1,.27.42,2.75,2.75,0,0,1,.15.36,3.86,3.86,0,0,1,.17.55,3.38,3.38,0,0,1,.07.79A1.78,1.78,0,0,1,11.58,11.75Z"/><path id="_Compound_Path_15" data-name="&lt;Compound Path&gt;" class="cls-1" d="M54,19.2a1,1,0,0,0,.7.29,1,1,0,0,0,.69-.29l5.27-5.27h4.16a1.85,1.85,0,0,0,1.83-1.58l.93-6.72-6.72.93a1.84,1.84,0,0,0-1.59,1.82v4.16L54,17.81A1,1,0,0,0,54,19.2Zm7.22-7.7a3.38,3.38,0,0,1,.07-.79,3.86,3.86,0,0,1,.17-.55,2.75,2.75,0,0,1,.15-.36,3.74,3.74,0,0,1,.27-.42,3.58,3.58,0,0,1,.71-.71,3.35,3.35,0,0,1,1.33-.59A3.38,3.38,0,0,1,64.68,8a1.7,1.7,0,0,1,.25,0H65l.11.11s-.22.26-.56.63l-.43.45-.09.09c-.24.26-.5.52-.77.8-.48.47-1,.94-1.34,1.28l-.62.57-.12-.11a.67.67,0,0,0,0-.1A1.78,1.78,0,0,1,61.19,11.5Z"/></g><g id="_Group_7" data-name="&lt;Group&gt;"><path id="_Path_3" data-name="&lt;Path&gt;" class="cls-1" d="M66.81,67.41a1,1,0,0,1-.71-.29L54,55a1,1,0,0,1,1.41-1.41L67.51,65.71a1,1,0,0,1,0,1.41A1,1,0,0,1,66.81,67.41Z"/></g><g id="_Group_8" data-name="&lt;Group&gt;"><path id="_Path_4" data-name="&lt;Path&gt;" class="cls-1" d="M6.12,67.41a1,1,0,0,1-.7-.29,1,1,0,0,1,0-1.41L17.51,53.63a1,1,0,0,1,1.4,0,1,1,0,0,1,0,1.41L6.83,67.12A1,1,0,0,1,6.12,67.41Z"/></g></g></g><g id="_Group_9" data-name="&lt;Group&gt;"><g id="_Group_10" data-name="&lt;Group&gt;"><path id="_Compound_Path_16" data-name="&lt;Compound Path&gt;" class="cls-1" d="M96.07,15.52h12.47c7.28,0,11.69,4.31,11.69,10.55v.09c0,7.06-5.5,10.72-12.34,10.72h-5.1V46H96.07Zm12,15.39c3.35,0,5.32-2,5.32-4.62V26.2c0-3-2.1-4.62-5.45-4.62h-5.19v9.33Z"/><path id="_Compound_Path_17" data-name="&lt;Compound Path&gt;" class="cls-1" d="M146.09,30.86v-.08A15.51,15.51,0,0,1,162,15c5.76,0,9.2,1.92,12,4.71l-4.27,4.93c-2.36-2.14-4.76-3.44-7.81-3.44-5.14,0-8.85,4.27-8.85,9.5v.09c0,5.23,3.62,9.59,8.85,9.59,3.49,0,5.62-1.4,8-3.58l4.28,4.32a15.6,15.6,0,0,1-12.52,5.45A15.4,15.4,0,0,1,146.09,30.86Z"/><path id="_Compound_Path_18" data-name="&lt;Compound Path&gt;" class="cls-1" d="M175.18,34.48V34.4c0-6.72,5.4-12.17,12.68-12.17s12.61,5.36,12.61,12.08v.09c0,6.71-5.41,12.16-12.69,12.16S175.18,41.2,175.18,34.48Zm18.75,0V34.4a6.22,6.22,0,0,0-6.15-6.46c-3.8,0-6.06,2.92-6.06,6.37v.09a6.2,6.2,0,0,0,6.14,6.45C191.66,40.85,193.93,37.93,193.93,34.48Z"/><path id="_Compound_Path_19" data-name="&lt;Compound Path&gt;" class="cls-1" d="M203.09,22.93h6.62v3.31c1.53-2,3.49-3.75,6.85-3.75,5,0,7.93,3.32,7.93,8.68V46.3h-6.62v-13c0-3.14-1.49-4.75-4-4.75s-4.14,1.61-4.14,4.75v13h-6.62Z"/><g id="_Group_11" data-name="&lt;Group&gt;"><path id="_Compound_Path_20" data-name="&lt;Compound Path&gt;" class="cls-1" d="M232.28,15.78h2.27v20l19.44-20h3.1L243.75,29.25l13.91,17h-3L242.13,30.86l-7.58,7.68V46.3h-2.27Z"/><path id="_Compound_Path_21" data-name="&lt;Compound Path&gt;" class="cls-1" d="M258,35.22v-.08c0-6.46,4.53-11.6,10.55-11.6,6.23,0,10.2,5.06,10.2,11.64a6.05,6.05,0,0,1,0,.87H260.23c.39,5.54,4.36,8.77,8.72,8.77a10,10,0,0,0,7.63-3.49l1.49,1.31a11.7,11.7,0,0,1-9.2,4.18C263,46.82,258,42.16,258,35.22Zm18.44-1.09c-.31-4.49-2.88-8.63-8-8.63-4.4,0-7.81,3.71-8.2,8.63Z"/></g><polygon id="_Path_5" data-name="&lt;Path&gt;" class="cls-1" points="138.1 22.67 132.86 38.19 127.92 22.67 120.67 22.67 129.87 47.03 126.29 57.79 132.86 57.79 144.99 22.67 138.1 22.67"/></g><g id="_Group_12" data-name="&lt;Group&gt;"><path id="_Compound_Path_22" data-name="&lt;Compound Path&gt;" class="cls-1" d="M290.72,45.51,303.3,33.6c4.74-4.43,5.85-7,5.85-9.51,0-3.71-3.2-6.62-7.42-6.62s-7,2.35-9.09,5.85l-1.16-.73c2.22-3.79,5.34-6.4,10.33-6.4,5.21,0,8.83,3.46,8.83,7.77v.09c0,3.2-1.36,5.71-6.4,10.49L293.06,45.13h18v1.36H290.72Z"/><path id="_Compound_Path_23" data-name="&lt;Compound Path&gt;" class="cls-1" d="M315.25,31.6v-.09c0-8.15,4.61-15.4,12.29-15.4s12.29,7.17,12.29,15.4v.09c0,8.15-4.61,15.4-12.29,15.4S315.25,39.83,315.25,31.6Zm23.09,0v-.08c0-7.34-4.06-14.13-10.84-14.13s-10.76,6.66-10.76,14v.09c0,7.34,4.06,14.12,10.84,14.12S338.34,39,338.34,31.64Z"/><path id="_Compound_Path_24" data-name="&lt;Compound Path&gt;" class="cls-1" d="M348.75,18l-5.64,2.26-.46-1.15,6.4-2.69h1.11V46.49h-1.41Z"/><path id="_Compound_Path_25" data-name="&lt;Compound Path&gt;" class="cls-1" d="M356.39,38.72v-.08c0-3.71,3.2-6.57,7.33-7.55-3.54-1.11-6.18-3.5-6.18-7.09v-.08c0-4.48,4.48-7.73,9.85-7.73s9.86,3.25,9.86,7.73V24c0,3.59-2.64,6-6.19,7.09,4.14,1,7.3,3.88,7.3,7.55v.08c0,4.57-4.35,8.2-11,8.2S356.39,43.29,356.39,38.72Zm20.52.09v-.09c0-4-4.31-6.95-9.56-6.95s-9.47,2.86-9.47,6.91v.09c0,3.67,3.63,6.83,9.51,6.83S376.91,42.48,376.91,38.81ZM375.76,24v-.08c0-3.67-3.71-6.4-8.41-6.4S359,20.21,359,23.87V24c0,3.93,3.84,6.53,8.4,6.53S375.76,27.93,375.76,24Z"/></g></g></g></g></g></svg>