<svg xmlns="http://www.w3.org/2000/svg" xmlns:xlink="http://www.w3.org/1999/xlink" viewBox="0 0 1352.05 128.25"><defs><style>.cls-1{fill:none;}.cls-2{clip-path:url(#clip-path);}.cls-3{fill:#55bcb5;}.cls-4{fill:#fff;}</style><clipPath id="clip-path" transform="translate(0 -22.91)"><rect id="_Rectangle_" data-name="&lt;Rectangle&gt;" class="cls-1" x="35.4" width="1281.65" height="162.81"/></clipPath></defs><title>Asset 1</title><g id="Layer_2" data-name="Layer 2"><g id="Layer_2-2" data-name="Layer 2"><g id="_Clip_Group_" data-name="&lt;Clip Group&gt;"><g class="cls-2"><g id="_Group_" data-name="&lt;Group&gt;"><g id="_Group_2" data-name="&lt;Group&gt;"><g id="_Group_3" data-name="&lt;Group&gt;"><g id="_Group_4" data-name="&lt;Group&gt;"><g id="_Group_5" data-name="&lt;Group&gt;"><path id="_Compound_Path_" data-name="&lt;Compound Path&gt;" class="cls-3" d="M731.84,84.21H661l35.4-61.3ZM666,81.36h60.91L696.44,28.61Z" transform="translate(0 -22.91)"/></g><g id="_Group_6" data-name="&lt;Group&gt;"><path id="_Compound_Path_2" data-name="&lt;Compound Path&gt;" class="cls-3" d="M720.42,77.16h-48l24-41.54Zm-43-2.86h38.07l-19-33Z" transform="translate(0 -22.91)"/></g><g id="_Group_7" data-name="&lt;Group&gt;"><path id="_Compound_Path_3" data-name="&lt;Compound Path&gt;" class="cls-3" d="M709,70.1H683.87l12.57-21.76Zm-20.19-2.85h15.25L696.44,54Z" transform="translate(0 -22.91)"/></g></g><g id="_Group_8" data-name="&lt;Group&gt;"><g id="_Group_9" data-name="&lt;Group&gt;"><path id="_Compound_Path_4" data-name="&lt;Compound Path&gt;" class="cls-3" d="M814.55,84.21H743.76l35.4-61.3ZM748.7,81.36h60.91L779.16,28.61Z" transform="translate(0 -22.91)"/></g><g id="_Group_10" data-name="&lt;Group&gt;"><path id="_Compound_Path_5" data-name="&lt;Compound Path&gt;" class="cls-3" d="M803.14,77.16h-48l24-41.54Zm-43-2.86h38.07l-19-33Z" transform="translate(0 -22.91)"/></g><g id="_Group_11" data-name="&lt;Group&gt;"><path id="_Compound_Path_6" data-name="&lt;Compound Path&gt;" class="cls-3" d="M791.72,70.1H766.59l12.57-21.76Zm-20.19-2.85h15.25L779.16,54Z" transform="translate(0 -22.91)"/></g></g><g id="_Group_12" data-name="&lt;Group&gt;"><g id="_Group_13" data-name="&lt;Group&gt;"><path id="_Compound_Path_7" data-name="&lt;Compound Path&gt;" class="cls-3" d="M897.27,84.21h-70.8l35.4-61.3Zm-65.85-2.85h60.91L861.87,28.61Z" transform="translate(0 -22.91)"/></g><g id="_Group_14" data-name="&lt;Group&gt;"><path id="_Compound_Path_8" data-name="&lt;Compound Path&gt;" class="cls-3" d="M885.86,77.16h-48l24-41.54Zm-43-2.86h38.07l-19-33Z" transform="translate(0 -22.91)"/></g><g id="_Group_15" data-name="&lt;Group&gt;"><path id="_Compound_Path_9" data-name="&lt;Compound Path&gt;" class="cls-3" d="M874.44,70.1H849.31l12.56-21.76Zm-20.19-2.85H869.5L861.87,54Z" transform="translate(0 -22.91)"/></g></g><g id="_Group_16" data-name="&lt;Group&gt;"><g id="_Group_17" data-name="&lt;Group&gt;"><path id="_Compound_Path_10" data-name="&lt;Compound Path&gt;" class="cls-3" d="M980,84.21h-70.8l35.4-61.3Zm-65.85-2.85h60.91L944.59,28.61Z" transform="translate(0 -22.91)"/></g><g id="_Group_18" data-name="&lt;Group&gt;"><path id="_Compound_Path_11" data-name="&lt;Compound Path&gt;" class="cls-3" d="M968.58,77.16h-48l24-41.54Zm-43-2.86h38.08l-19-33Z" transform="translate(0 -22.91)"/></g><g id="_Group_19" data-name="&lt;Group&gt;"><path id="_Compound_Path_12" data-name="&lt;Compound Path&gt;" class="cls-3" d="M957.16,70.1H932l12.57-21.76ZM937,67.25h15.25L944.59,54Z" transform="translate(0 -22.91)"/></g></g><g id="_Group_20" data-name="&lt;Group&gt;"><g id="_Group_21" data-name="&lt;Group&gt;"><path id="_Compound_Path_13" data-name="&lt;Compound Path&gt;" class="cls-3" d="M1062.71,84.21h-70.8l35.4-61.3Zm-65.85-2.85h60.91l-30.46-52.75Z" transform="translate(0 -22.91)"/></g><g id="_Group_22" data-name="&lt;Group&gt;"><path id="_Compound_Path_14" data-name="&lt;Compound Path&gt;" class="cls-3" d="M1051.3,77.16h-48l24-41.54Zm-43-2.86h38.08l-19-33Z" transform="translate(0 -22.91)"/></g><g id="_Group_23" data-name="&lt;Group&gt;"><path id="_Compound_Path_15" data-name="&lt;Compound Path&gt;" class="cls-3" d="M1039.88,70.1h-25.14l12.57-21.76Zm-20.19-2.85h15.24L1027.31,54Z" transform="translate(0 -22.91)"/></g></g><g id="_Group_24" data-name="&lt;Group&gt;"><g id="_Group_25" data-name="&lt;Group&gt;"><path id="_Compound_Path_16" data-name="&lt;Compound Path&gt;" class="cls-3" d="M1145.25,84.21h-70.8l35.4-61.3Zm-65.85-2.85h60.9l-30.45-52.75Z" transform="translate(0 -22.91)"/></g><g id="_Group_26" data-name="&lt;Group&gt;"><path id="_Compound_Path_17" data-name="&lt;Compound Path&gt;" class="cls-3" d="M1133.83,77.16h-48l24-41.54Zm-43-2.86h38.08l-19-33Z" transform="translate(0 -22.91)"/></g><g id="_Group_27" data-name="&lt;Group&gt;"><path id="_Compound_Path_18" data-name="&lt;Compound Path&gt;" class="cls-3" d="M1122.42,70.1h-25.14l12.57-21.76Zm-20.19-2.85h15.24L1109.85,54Z" transform="translate(0 -22.91)"/></g></g><g id="_Group_28" data-name="&lt;Group&gt;"><g id="_Group_29" data-name="&lt;Group&gt;"><path id="_Compound_Path_19" data-name="&lt;Compound Path&gt;" class="cls-3" d="M1228,84.21h-70.8l35.4-61.3Zm-65.86-2.85H1223l-30.45-52.75Z" transform="translate(0 -22.91)"/></g><g id="_Group_30" data-name="&lt;Group&gt;"><path id="_Compound_Path_20" data-name="&lt;Compound Path&gt;" class="cls-3" d="M1216.55,77.16h-48l24-41.54Zm-43-2.86h38.08l-19-33Z" transform="translate(0 -22.91)"/></g><g id="_Group_31" data-name="&lt;Group&gt;"><path id="_Compound_Path_21" data-name="&lt;Compound Path&gt;" class="cls-3" d="M1205.14,70.1H1180l12.57-21.76ZM1185,67.25h15.24L1192.57,54Z" transform="translate(0 -22.91)"/></g></g><g id="_Group_32" data-name="&lt;Group&gt;"><g id="_Group_33" data-name="&lt;Group&gt;"><path id="_Compound_Path_22" data-name="&lt;Compound Path&gt;" class="cls-3" d="M1310.69,84.21h-70.8l35.4-61.3Zm-65.86-2.85h60.91l-30.45-52.75Z" transform="translate(0 -22.91)"/></g><g id="_Group_34" data-name="&lt;Group&gt;"><path id="_Compound_Path_23" data-name="&lt;Compound Path&gt;" class="cls-3" d="M1299.27,77.16h-48l24-41.54Zm-43-2.86h38.08l-19-33Z" transform="translate(0 -22.91)"/></g><g id="_Group_35" data-name="&lt;Group&gt;"><path id="_Compound_Path_24" data-name="&lt;Compound Path&gt;" class="cls-3" d="M1287.86,70.1h-25.14l12.57-21.76Zm-20.2-2.85h15.25L1275.29,54Z" transform="translate(0 -22.91)"/></g></g><g id="_Group_36" data-name="&lt;Group&gt;"><g id="_Group_37" data-name="&lt;Group&gt;"><path id="_Compound_Path_25" data-name="&lt;Compound Path&gt;" class="cls-3" d="M696.44,151.15,661,89.85h70.8ZM666,92.7l30.46,52.75L726.89,92.7Z" transform="translate(0 -22.91)"/></g><g id="_Group_38" data-name="&lt;Group&gt;"><path id="_Compound_Path_26" data-name="&lt;Compound Path&gt;" class="cls-3" d="M696.44,138.44l-24-41.54h48Zm-19-38.68,19,33,19-33Z" transform="translate(0 -22.91)"/></g><g id="_Group_39" data-name="&lt;Group&gt;"><path id="_Compound_Path_27" data-name="&lt;Compound Path&gt;" class="cls-3" d="M696.44,125.73,683.87,104H709Zm-7.63-18.92L696.44,120l7.62-13.21Z" transform="translate(0 -22.91)"/></g></g><g id="_Group_40" data-name="&lt;Group&gt;"><g id="_Group_41" data-name="&lt;Group&gt;"><path id="_Compound_Path_28" data-name="&lt;Compound Path&gt;" class="cls-3" d="M779.16,151.15l-35.4-61.3h70.79ZM748.7,92.7l30.46,52.75L809.61,92.7Z" transform="translate(0 -22.91)"/></g><g id="_Group_42" data-name="&lt;Group&gt;"><path id="_Compound_Path_29" data-name="&lt;Compound Path&gt;" class="cls-3" d="M779.16,138.44l-24-41.54h48Zm-19-38.68,19,33,19-33Z" transform="translate(0 -22.91)"/></g><g id="_Group_43" data-name="&lt;Group&gt;"><path id="_Compound_Path_30" data-name="&lt;Compound Path&gt;" class="cls-3" d="M779.16,125.73,766.59,104h25.13Zm-7.63-18.92L779.16,120l7.62-13.21Z" transform="translate(0 -22.91)"/></g></g><g id="_Group_44" data-name="&lt;Group&gt;"><g id="_Group_45" data-name="&lt;Group&gt;"><path id="_Compound_Path_31" data-name="&lt;Compound Path&gt;" class="cls-3" d="M861.87,151.15l-35.4-61.3h70.8ZM831.42,92.7l30.45,52.75L892.33,92.7Z" transform="translate(0 -22.91)"/></g><g id="_Group_46" data-name="&lt;Group&gt;"><path id="_Compound_Path_32" data-name="&lt;Compound Path&gt;" class="cls-3" d="M861.87,138.44l-24-41.54h48Zm-19-38.68,19,33,19-33Z" transform="translate(0 -22.91)"/></g><g id="_Group_47" data-name="&lt;Group&gt;"><path id="_Compound_Path_33" data-name="&lt;Compound Path&gt;" class="cls-3" d="M861.87,125.73,849.31,104h25.13Zm-7.62-18.92L861.87,120l7.63-13.21Z" transform="translate(0 -22.91)"/></g></g><g id="_Group_48" data-name="&lt;Group&gt;"><g id="_Group_49" data-name="&lt;Group&gt;"><path id="_Compound_Path_34" data-name="&lt;Compound Path&gt;" class="cls-3" d="M944.59,151.15l-35.4-61.3H980ZM914.14,92.7l30.45,52.75L975.05,92.7Z" transform="translate(0 -22.91)"/></g><g id="_Group_50" data-name="&lt;Group&gt;"><path id="_Compound_Path_35" data-name="&lt;Compound Path&gt;" class="cls-3" d="M944.59,138.44l-24-41.54h48Zm-19-38.68,19,33,19-33Z" transform="translate(0 -22.91)"/></g><g id="_Group_51" data-name="&lt;Group&gt;"><path id="_Compound_Path_36" data-name="&lt;Compound Path&gt;" class="cls-3" d="M944.59,125.73,932,104h25.14ZM937,106.81,944.59,120l7.63-13.21Z" transform="translate(0 -22.91)"/></g></g><g id="_Group_52" data-name="&lt;Group&gt;"><g id="_Group_53" data-name="&lt;Group&gt;"><path id="_Compound_Path_37" data-name="&lt;Compound Path&gt;" class="cls-3" d="M1027.31,151.15l-35.4-61.3h70.8ZM996.86,92.7l30.45,52.75,30.46-52.75Z" transform="translate(0 -22.91)"/></g><g id="_Group_54" data-name="&lt;Group&gt;"><path id="_Compound_Path_38" data-name="&lt;Compound Path&gt;" class="cls-3" d="M1027.31,138.44l-24-41.54h48Zm-19-38.68,19,33,19-33Z" transform="translate(0 -22.91)"/></g><g id="_Group_55" data-name="&lt;Group&gt;"><path id="_Compound_Path_39" data-name="&lt;Compound Path&gt;" class="cls-3" d="M1027.31,125.73,1014.74,104h25.14Zm-7.62-18.92,7.62,13.21,7.62-13.21Z" transform="translate(0 -22.91)"/></g></g><g id="_Group_56" data-name="&lt;Group&gt;"><g id="_Group_57" data-name="&lt;Group&gt;"><path id="_Compound_Path_40" data-name="&lt;Compound Path&gt;" class="cls-3" d="M1109.85,151.15l-35.4-61.3h70.8ZM1079.4,92.7l30.45,52.75L1140.3,92.7Z" transform="translate(0 -22.91)"/></g><g id="_Group_58" data-name="&lt;Group&gt;"><path id="_Compound_Path_41" data-name="&lt;Compound Path&gt;" class="cls-3" d="M1109.85,138.44l-24-41.54h48Zm-19-38.68,19,33,19-33Z" transform="translate(0 -22.91)"/></g><g id="_Group_59" data-name="&lt;Group&gt;"><path id="_Compound_Path_42" data-name="&lt;Compound Path&gt;" class="cls-3" d="M1109.85,125.73,1097.28,104h25.14Zm-7.62-18.92,7.62,13.21,7.62-13.21Z" transform="translate(0 -22.91)"/></g></g><g id="_Group_60" data-name="&lt;Group&gt;"><g id="_Group_61" data-name="&lt;Group&gt;"><path id="_Compound_Path_43" data-name="&lt;Compound Path&gt;" class="cls-3" d="M1192.57,151.15l-35.4-61.3H1228ZM1162.11,92.7l30.46,52.75L1223,92.7Z" transform="translate(0 -22.91)"/></g><g id="_Group_62" data-name="&lt;Group&gt;"><path id="_Compound_Path_44" data-name="&lt;Compound Path&gt;" class="cls-3" d="M1192.57,138.44l-24-41.54h48Zm-19-38.68,19,33,19-33Z" transform="translate(0 -22.91)"/></g><g id="_Group_63" data-name="&lt;Group&gt;"><path id="_Compound_Path_45" data-name="&lt;Compound Path&gt;" class="cls-3" d="M1192.57,125.73,1180,104h25.14ZM1185,106.81l7.62,13.21,7.62-13.21Z" transform="translate(0 -22.91)"/></g></g><g id="_Group_64" data-name="&lt;Group&gt;"><g id="_Group_65" data-name="&lt;Group&gt;"><path id="_Compound_Path_46" data-name="&lt;Compound Path&gt;" class="cls-3" d="M1275.29,151.15l-35.4-61.3h70.8ZM1244.83,92.7l30.46,52.75,30.45-52.75Z" transform="translate(0 -22.91)"/></g><g id="_Group_66" data-name="&lt;Group&gt;"><path id="_Compound_Path_47" data-name="&lt;Compound Path&gt;" class="cls-3" d="M1275.29,138.44l-24-41.54h48Zm-19-38.68,19,33,19-33Z" transform="translate(0 -22.91)"/></g><g id="_Group_67" data-name="&lt;Group&gt;"><path id="_Compound_Path_48" data-name="&lt;Compound Path&gt;" class="cls-3" d="M1275.29,125.73,1262.72,104h25.14Zm-7.63-18.92,7.63,13.21,7.62-13.21Z" transform="translate(0 -22.91)"/></g></g></g><g id="_Group_68" data-name="&lt;Group&gt;"><g id="_Group_69" data-name="&lt;Group&gt;"><g id="_Group_70" data-name="&lt;Group&gt;"><path id="_Compound_Path_49" data-name="&lt;Compound Path&gt;" class="cls-4" d="M737.8,85.64,702.4,24.33h70.79ZM707.34,27.19,737.8,79.93l30.45-52.74Z" transform="translate(0 -22.91)"/></g><g id="_Group_71" data-name="&lt;Group&gt;"><path id="_Compound_Path_50" data-name="&lt;Compound Path&gt;" class="cls-4" d="M737.8,72.93l-24-41.54h48Zm-19-38.69,19,33,19-33Z" transform="translate(0 -22.91)"/></g><g id="_Group_72" data-name="&lt;Group&gt;"><path id="_Compound_Path_51" data-name="&lt;Compound Path&gt;" class="cls-4" d="M737.8,60.21,725.23,38.44h25.13ZM730.17,41.3l7.63,13.2,7.62-13.2Z" transform="translate(0 -22.91)"/></g></g><g id="_Group_73" data-name="&lt;Group&gt;"><g id="_Group_74" data-name="&lt;Group&gt;"><path id="_Compound_Path_52" data-name="&lt;Compound Path&gt;" class="cls-4" d="M820.52,85.64l-35.4-61.31h70.79ZM790.06,27.19l30.46,52.74L851,27.19Z" transform="translate(0 -22.91)"/></g><g id="_Group_75" data-name="&lt;Group&gt;"><path id="_Compound_Path_53" data-name="&lt;Compound Path&gt;" class="cls-4" d="M820.52,72.93l-24-41.54h48Zm-19-38.69,19,33,19-33Z" transform="translate(0 -22.91)"/></g><g id="_Group_76" data-name="&lt;Group&gt;"><path id="_Compound_Path_54" data-name="&lt;Compound Path&gt;" class="cls-4" d="M820.52,60.21,808,38.44h25.13ZM812.89,41.3l7.63,13.2,7.62-13.2Z" transform="translate(0 -22.91)"/></g></g><g id="_Group_77" data-name="&lt;Group&gt;"><g id="_Group_78" data-name="&lt;Group&gt;"><path id="_Compound_Path_55" data-name="&lt;Compound Path&gt;" class="cls-4" d="M903.23,85.64l-35.4-61.31h70.8ZM872.78,27.19l30.45,52.74,30.46-52.74Z" transform="translate(0 -22.91)"/></g><g id="_Group_79" data-name="&lt;Group&gt;"><path id="_Compound_Path_56" data-name="&lt;Compound Path&gt;" class="cls-4" d="M903.23,72.93l-24-41.54h48Zm-19-38.69,19,33,19-33Z" transform="translate(0 -22.91)"/></g><g id="_Group_80" data-name="&lt;Group&gt;"><path id="_Compound_Path_57" data-name="&lt;Compound Path&gt;" class="cls-4" d="M903.23,60.21,890.66,38.44H915.8ZM895.61,41.3l7.62,13.2,7.63-13.2Z" transform="translate(0 -22.91)"/></g></g><g id="_Group_81" data-name="&lt;Group&gt;"><g id="_Group_82" data-name="&lt;Group&gt;"><path id="_Compound_Path_58" data-name="&lt;Compound Path&gt;" class="cls-4" d="M986,85.64l-35.4-61.31h70.8ZM955.5,27.19,986,79.93l30.46-52.74Z" transform="translate(0 -22.91)"/></g><g id="_Group_83" data-name="&lt;Group&gt;"><path id="_Compound_Path_59" data-name="&lt;Compound Path&gt;" class="cls-4" d="M986,72.93,962,31.39h48Zm-19-38.69,19,33,19-33Z" transform="translate(0 -22.91)"/></g><g id="_Group_84" data-name="&lt;Group&gt;"><path id="_Compound_Path_60" data-name="&lt;Compound Path&gt;" class="cls-4" d="M986,60.21,973.38,38.44h25.14ZM978.33,41.3,986,54.5l7.63-13.2Z" transform="translate(0 -22.91)"/></g></g><g id="_Group_85" data-name="&lt;Group&gt;"><g id="_Group_86" data-name="&lt;Group&gt;"><path id="_Compound_Path_61" data-name="&lt;Compound Path&gt;" class="cls-4" d="M1068.67,85.64l-35.4-61.31h70.8Zm-30.45-58.45,30.45,52.74,30.46-52.74Z" transform="translate(0 -22.91)"/></g><g id="_Group_87" data-name="&lt;Group&gt;"><path id="_Compound_Path_62" data-name="&lt;Compound Path&gt;" class="cls-4" d="M1068.67,72.93l-24-41.54h48Zm-19-38.69,19,33,19-33Z" transform="translate(0 -22.91)"/></g><g id="_Group_88" data-name="&lt;Group&gt;"><path id="_Compound_Path_63" data-name="&lt;Compound Path&gt;" class="cls-4" d="M1068.67,60.21,1056.1,38.44h25.14Zm-7.62-18.91,7.62,13.2,7.62-13.2Z" transform="translate(0 -22.91)"/></g></g><g id="_Group_89" data-name="&lt;Group&gt;"><g id="_Group_90" data-name="&lt;Group&gt;"><path id="_Compound_Path_64" data-name="&lt;Compound Path&gt;" class="cls-4" d="M1151.21,85.64l-35.4-61.31h70.8Zm-30.46-58.45,30.46,52.74,30.45-52.74Z" transform="translate(0 -22.91)"/></g><g id="_Group_91" data-name="&lt;Group&gt;"><path id="_Compound_Path_65" data-name="&lt;Compound Path&gt;" class="cls-4" d="M1151.21,72.93l-24-41.54h48Zm-19-38.69,19,33,19-33Z" transform="translate(0 -22.91)"/></g><g id="_Group_92" data-name="&lt;Group&gt;"><path id="_Compound_Path_66" data-name="&lt;Compound Path&gt;" class="cls-4" d="M1151.21,60.21l-12.57-21.77h25.14Zm-7.62-18.91,7.62,13.2,7.62-13.2Z" transform="translate(0 -22.91)"/></g></g><g id="_Group_93" data-name="&lt;Group&gt;"><g id="_Group_94" data-name="&lt;Group&gt;"><path id="_Compound_Path_67" data-name="&lt;Compound Path&gt;" class="cls-4" d="M1233.93,85.64l-35.4-61.31h70.8Zm-30.46-58.45,30.46,52.74,30.45-52.74Z" transform="translate(0 -22.91)"/></g><g id="_Group_95" data-name="&lt;Group&gt;"><path id="_Compound_Path_68" data-name="&lt;Compound Path&gt;" class="cls-4" d="M1233.93,72.93l-24-41.54h48Zm-19-38.69,19,33,19-33Z" transform="translate(0 -22.91)"/></g><g id="_Group_96" data-name="&lt;Group&gt;"><path id="_Compound_Path_69" data-name="&lt;Compound Path&gt;" class="cls-4" d="M1233.93,60.21l-12.57-21.77h25.14Zm-7.62-18.91,7.62,13.2,7.62-13.2Z" transform="translate(0 -22.91)"/></g></g><g id="_Group_97" data-name="&lt;Group&gt;"><g id="_Group_98" data-name="&lt;Group&gt;"><path id="_Compound_Path_70" data-name="&lt;Compound Path&gt;" class="cls-4" d="M1316.65,85.64l-35.4-61.31h70.8Zm-30.46-58.45,30.46,52.74,30.45-52.74Z" transform="translate(0 -22.91)"/></g><g id="_Group_99" data-name="&lt;Group&gt;"><path id="_Compound_Path_71" data-name="&lt;Compound Path&gt;" class="cls-4" d="M1316.65,72.93l-24-41.54h48Zm-19-38.69,19,33,19-33Z" transform="translate(0 -22.91)"/></g><g id="_Group_100" data-name="&lt;Group&gt;"><path id="_Compound_Path_72" data-name="&lt;Compound Path&gt;" class="cls-4" d="M1316.65,60.21l-12.57-21.77h25.14ZM1309,41.3l7.63,13.2,7.62-13.2Z" transform="translate(0 -22.91)"/></g></g><g id="_Group_101" data-name="&lt;Group&gt;"><g id="_Group_102" data-name="&lt;Group&gt;"><path id="_Compound_Path_73" data-name="&lt;Compound Path&gt;" class="cls-4" d="M773.19,149.73H702.4l35.4-61.31Zm-65.85-2.86h60.91L737.8,94.13Z" transform="translate(0 -22.91)"/></g><g id="_Group_103" data-name="&lt;Group&gt;"><path id="_Compound_Path_74" data-name="&lt;Compound Path&gt;" class="cls-4" d="M761.78,142.67h-48l24-41.53Zm-43-2.85h38.07l-19-33Z" transform="translate(0 -22.91)"/></g><g id="_Group_104" data-name="&lt;Group&gt;"><path id="_Compound_Path_75" data-name="&lt;Compound Path&gt;" class="cls-4" d="M750.36,135.62H725.23l12.57-21.77Zm-20.19-2.86h15.25l-7.62-13.2Z" transform="translate(0 -22.91)"/></g></g><g id="_Group_105" data-name="&lt;Group&gt;"><g id="_Group_106" data-name="&lt;Group&gt;"><path id="_Compound_Path_76" data-name="&lt;Compound Path&gt;" class="cls-4" d="M855.91,149.73H785.12l35.4-61.31Zm-65.85-2.86H851L820.52,94.13Z" transform="translate(0 -22.91)"/></g><g id="_Group_107" data-name="&lt;Group&gt;"><path id="_Compound_Path_77" data-name="&lt;Compound Path&gt;" class="cls-4" d="M844.5,142.67h-48l24-41.53Zm-43-2.85h38.07l-19-33Z" transform="translate(0 -22.91)"/></g><g id="_Group_108" data-name="&lt;Group&gt;"><path id="_Compound_Path_78" data-name="&lt;Compound Path&gt;" class="cls-4" d="M833.08,135.62H808l12.57-21.77Zm-20.19-2.86h15.25l-7.62-13.2Z" transform="translate(0 -22.91)"/></g></g><g id="_Group_109" data-name="&lt;Group&gt;"><g id="_Group_110" data-name="&lt;Group&gt;"><path id="_Compound_Path_79" data-name="&lt;Compound Path&gt;" class="cls-4" d="M938.63,149.73h-70.8l35.4-61.31Zm-65.85-2.86h60.91L903.23,94.13Z" transform="translate(0 -22.91)"/></g><g id="_Group_111" data-name="&lt;Group&gt;"><path id="_Compound_Path_80" data-name="&lt;Compound Path&gt;" class="cls-4" d="M927.22,142.67h-48l24-41.53Zm-43-2.85h38.08l-19-33Z" transform="translate(0 -22.91)"/></g><g id="_Group_112" data-name="&lt;Group&gt;"><path id="_Compound_Path_81" data-name="&lt;Compound Path&gt;" class="cls-4" d="M915.8,135.62H890.66l12.57-21.77Zm-20.19-2.86h15.25l-7.63-13.2Z" transform="translate(0 -22.91)"/></g></g><g id="_Group_113" data-name="&lt;Group&gt;"><g id="_Group_114" data-name="&lt;Group&gt;"><path id="_Compound_Path_82" data-name="&lt;Compound Path&gt;" class="cls-4" d="M1021.35,149.73h-70.8L986,88.42Zm-65.85-2.86h60.91L986,94.13Z" transform="translate(0 -22.91)"/></g><g id="_Group_115" data-name="&lt;Group&gt;"><path id="_Compound_Path_83" data-name="&lt;Compound Path&gt;" class="cls-4" d="M1009.94,142.67H962l24-41.53Zm-43-2.85H1005l-19-33Z" transform="translate(0 -22.91)"/></g><g id="_Group_116" data-name="&lt;Group&gt;"><path id="_Compound_Path_84" data-name="&lt;Compound Path&gt;" class="cls-4" d="M998.52,135.62H973.38L986,113.85Zm-20.19-2.86h15.25L986,119.56Z" transform="translate(0 -22.91)"/></g></g><g id="_Group_117" data-name="&lt;Group&gt;"><g id="_Group_118" data-name="&lt;Group&gt;"><path id="_Compound_Path_85" data-name="&lt;Compound Path&gt;" class="cls-4" d="M1103.89,149.73h-70.8l35.4-61.31ZM1038,146.87h60.9l-30.45-52.74Z" transform="translate(0 -22.91)"/></g><g id="_Group_119" data-name="&lt;Group&gt;"><path id="_Compound_Path_86" data-name="&lt;Compound Path&gt;" class="cls-4" d="M1092.47,142.67h-48l24-41.53Zm-43-2.85h38.08l-19-33Z" transform="translate(0 -22.91)"/></g><g id="_Group_120" data-name="&lt;Group&gt;"><path id="_Compound_Path_87" data-name="&lt;Compound Path&gt;" class="cls-4" d="M1081.06,135.62h-25.14l12.57-21.77Zm-20.19-2.86h15.24l-7.62-13.2Z" transform="translate(0 -22.91)"/></g></g><g id="_Group_121" data-name="&lt;Group&gt;"><g id="_Group_122" data-name="&lt;Group&gt;"><path id="_Compound_Path_88" data-name="&lt;Compound Path&gt;" class="cls-4" d="M1186.61,149.73h-70.8l35.4-61.31Zm-65.86-2.86h60.91l-30.45-52.74Z" transform="translate(0 -22.91)"/></g><g id="_Group_123" data-name="&lt;Group&gt;"><path id="_Compound_Path_89" data-name="&lt;Compound Path&gt;" class="cls-4" d="M1175.19,142.67h-48l24-41.53Zm-43-2.85h38.08l-19-33Z" transform="translate(0 -22.91)"/></g><g id="_Group_124" data-name="&lt;Group&gt;"><path id="_Compound_Path_90" data-name="&lt;Compound Path&gt;" class="cls-4" d="M1163.78,135.62h-25.14l12.57-21.77Zm-20.19-2.86h15.24l-7.62-13.2Z" transform="translate(0 -22.91)"/></g></g><g id="_Group_125" data-name="&lt;Group&gt;"><g id="_Group_126" data-name="&lt;Group&gt;"><path id="_Compound_Path_91" data-name="&lt;Compound Path&gt;" class="cls-4" d="M1269.33,149.73h-70.8l35.4-61.31Zm-65.86-2.86h60.91l-30.45-52.74Z" transform="translate(0 -22.91)"/></g><g id="_Group_127" data-name="&lt;Group&gt;"><path id="_Compound_Path_92" data-name="&lt;Compound Path&gt;" class="cls-4" d="M1257.91,142.67h-48l24-41.53Zm-43-2.85H1253l-19-33Z" transform="translate(0 -22.91)"/></g><g id="_Group_128" data-name="&lt;Group&gt;"><path id="_Compound_Path_93" data-name="&lt;Compound Path&gt;" class="cls-4" d="M1246.5,135.62h-25.14l12.57-21.77Zm-20.19-2.86h15.24l-7.62-13.2Z" transform="translate(0 -22.91)"/></g></g><g id="_Group_129" data-name="&lt;Group&gt;"><g id="_Group_130" data-name="&lt;Group&gt;"><path id="_Compound_Path_94" data-name="&lt;Compound Path&gt;" class="cls-4" d="M1352.05,149.73h-70.8l35.4-61.31Zm-65.86-2.86h60.91l-30.45-52.74Z" transform="translate(0 -22.91)"/></g><g id="_Group_131" data-name="&lt;Group&gt;"><path id="_Compound_Path_95" data-name="&lt;Compound Path&gt;" class="cls-4" d="M1340.63,142.67h-48l24-41.53Zm-43-2.85h38.08l-19-33Z" transform="translate(0 -22.91)"/></g><g id="_Group_132" data-name="&lt;Group&gt;"><path id="_Compound_Path_96" data-name="&lt;Compound Path&gt;" class="cls-4" d="M1329.22,135.62h-25.14l12.57-21.77Zm-20.2-2.86h15.25l-7.62-13.2Z" transform="translate(0 -22.91)"/></g></g></g></g><g id="_Group_133" data-name="&lt;Group&gt;"><g id="_Group_134" data-name="&lt;Group&gt;"><g id="_Group_135" data-name="&lt;Group&gt;"><g id="_Group_136" data-name="&lt;Group&gt;"><path id="_Compound_Path_97" data-name="&lt;Compound Path&gt;" class="cls-3" d="M70.8,84.21H0l35.4-61.3ZM5,81.36h60.9L35.4,28.61Z" transform="translate(0 -22.91)"/></g><g id="_Group_137" data-name="&lt;Group&gt;"><path id="_Compound_Path_98" data-name="&lt;Compound Path&gt;" class="cls-3" d="M59.38,77.16h-48l24-41.54Zm-43-2.86H54.44l-19-33Z" transform="translate(0 -22.91)"/></g><g id="_Group_138" data-name="&lt;Group&gt;"><path id="_Compound_Path_99" data-name="&lt;Compound Path&gt;" class="cls-3" d="M48,70.1H22.83L35.4,48.34ZM27.78,67.25H43L35.4,54Z" transform="translate(0 -22.91)"/></g></g><g id="_Group_139" data-name="&lt;Group&gt;"><g id="_Group_140" data-name="&lt;Group&gt;"><path id="_Compound_Path_100" data-name="&lt;Compound Path&gt;" class="cls-3" d="M153.52,84.21H82.72l35.4-61.3ZM87.66,81.36h60.91L118.12,28.61Z" transform="translate(0 -22.91)"/></g><g id="_Group_141" data-name="&lt;Group&gt;"><path id="_Compound_Path_101" data-name="&lt;Compound Path&gt;" class="cls-3" d="M142.1,77.16h-48l24-41.54Zm-43-2.86h38.08l-19-33Z" transform="translate(0 -22.91)"/></g><g id="_Group_142" data-name="&lt;Group&gt;"><path id="_Compound_Path_102" data-name="&lt;Compound Path&gt;" class="cls-3" d="M130.69,70.1H105.55l12.57-21.76Zm-20.2-2.85h15.25L118.12,54Z" transform="translate(0 -22.91)"/></g></g><g id="_Group_143" data-name="&lt;Group&gt;"><g id="_Group_144" data-name="&lt;Group&gt;"><path id="_Compound_Path_103" data-name="&lt;Compound Path&gt;" class="cls-3" d="M236.24,84.21h-70.8l35.4-61.3Zm-65.86-2.85h60.91L200.84,28.61Z" transform="translate(0 -22.91)"/></g><g id="_Group_145" data-name="&lt;Group&gt;"><path id="_Compound_Path_104" data-name="&lt;Compound Path&gt;" class="cls-3" d="M224.82,77.16h-48l24-41.54Zm-43-2.86h38.07l-19-33Z" transform="translate(0 -22.91)"/></g><g id="_Group_146" data-name="&lt;Group&gt;"><path id="_Compound_Path_105" data-name="&lt;Compound Path&gt;" class="cls-3" d="M213.4,70.1H188.27l12.57-21.76Zm-20.19-2.85h15.25L200.84,54Z" transform="translate(0 -22.91)"/></g></g><g id="_Group_147" data-name="&lt;Group&gt;"><g id="_Group_148" data-name="&lt;Group&gt;"><path id="_Compound_Path_106" data-name="&lt;Compound Path&gt;" class="cls-3" d="M319,84.21h-70.8l35.4-61.3ZM253.1,81.36H314L283.56,28.61Z" transform="translate(0 -22.91)"/></g><g id="_Group_149" data-name="&lt;Group&gt;"><path id="_Compound_Path_107" data-name="&lt;Compound Path&gt;" class="cls-3" d="M307.54,77.16h-48l24-41.54Zm-43-2.86h38.07l-19-33Z" transform="translate(0 -22.91)"/></g><g id="_Group_150" data-name="&lt;Group&gt;"><path id="_Compound_Path_108" data-name="&lt;Compound Path&gt;" class="cls-3" d="M296.12,70.1H271l12.57-21.76Zm-20.19-2.85h15.25L283.56,54Z" transform="translate(0 -22.91)"/></g></g><g id="_Group_151" data-name="&lt;Group&gt;"><g id="_Group_152" data-name="&lt;Group&gt;"><path id="_Compound_Path_109" data-name="&lt;Compound Path&gt;" class="cls-3" d="M401.67,84.21h-70.8l35.41-61.3Zm-65.85-2.85h60.91L366.28,28.61Z" transform="translate(0 -22.91)"/></g><g id="_Group_153" data-name="&lt;Group&gt;"><path id="_Compound_Path_110" data-name="&lt;Compound Path&gt;" class="cls-3" d="M390.26,77.16h-48l24-41.54Zm-43-2.86h38.07l-19-33Z" transform="translate(0 -22.91)"/></g><g id="_Group_154" data-name="&lt;Group&gt;"><path id="_Compound_Path_111" data-name="&lt;Compound Path&gt;" class="cls-3" d="M378.84,70.1H353.71l12.57-21.76Zm-20.19-2.85H373.9L366.28,54Z" transform="translate(0 -22.91)"/></g></g><g id="_Group_155" data-name="&lt;Group&gt;"><g id="_Group_156" data-name="&lt;Group&gt;"><path id="_Compound_Path_112" data-name="&lt;Compound Path&gt;" class="cls-3" d="M484.21,84.21h-70.8l35.4-61.3Zm-65.85-2.85h60.91L448.81,28.61Z" transform="translate(0 -22.91)"/></g><g id="_Group_157" data-name="&lt;Group&gt;"><path id="_Compound_Path_113" data-name="&lt;Compound Path&gt;" class="cls-3" d="M472.8,77.16h-48l24-41.54Zm-43-2.86h38.08l-19-33Z" transform="translate(0 -22.91)"/></g><g id="_Group_158" data-name="&lt;Group&gt;"><path id="_Compound_Path_114" data-name="&lt;Compound Path&gt;" class="cls-3" d="M461.38,70.1H436.24l12.57-21.76Zm-20.19-2.85h15.24L448.81,54Z" transform="translate(0 -22.91)"/></g></g><g id="_Group_159" data-name="&lt;Group&gt;"><g id="_Group_160" data-name="&lt;Group&gt;"><path id="_Compound_Path_115" data-name="&lt;Compound Path&gt;" class="cls-3" d="M566.93,84.21h-70.8l35.4-61.3Zm-65.85-2.85H562L531.53,28.61Z" transform="translate(0 -22.91)"/></g><g id="_Group_161" data-name="&lt;Group&gt;"><path id="_Compound_Path_116" data-name="&lt;Compound Path&gt;" class="cls-3" d="M555.51,77.16h-48l24-41.54Zm-43-2.86h38.08l-19-33Z" transform="translate(0 -22.91)"/></g><g id="_Group_162" data-name="&lt;Group&gt;"><path id="_Compound_Path_117" data-name="&lt;Compound Path&gt;" class="cls-3" d="M544.1,70.1H519l12.57-21.76Zm-20.19-2.85h15.24L531.53,54Z" transform="translate(0 -22.91)"/></g></g><g id="_Group_163" data-name="&lt;Group&gt;"><g id="_Group_164" data-name="&lt;Group&gt;"><path id="_Compound_Path_118" data-name="&lt;Compound Path&gt;" class="cls-3" d="M649.65,84.21h-70.8l35.4-61.3ZM583.8,81.36h60.9L614.25,28.61Z" transform="translate(0 -22.91)"/></g><g id="_Group_165" data-name="&lt;Group&gt;"><path id="_Compound_Path_119" data-name="&lt;Compound Path&gt;" class="cls-3" d="M638.23,77.16h-48l24-41.54Zm-43-2.86h38.08l-19-33Z" transform="translate(0 -22.91)"/></g><g id="_Group_166" data-name="&lt;Group&gt;"><path id="_Compound_Path_120" data-name="&lt;Compound Path&gt;" class="cls-3" d="M626.82,70.1H601.68l12.57-21.76Zm-20.19-2.85h15.24L614.25,54Z" transform="translate(0 -22.91)"/></g></g><g id="_Group_167" data-name="&lt;Group&gt;"><g id="_Group_168" data-name="&lt;Group&gt;"><path id="_Compound_Path_121" data-name="&lt;Compound Path&gt;" class="cls-3" d="M35.4,151.15,0,89.85H70.8ZM5,92.7,35.4,145.45,65.85,92.7Z" transform="translate(0 -22.91)"/></g><g id="_Group_169" data-name="&lt;Group&gt;"><path id="_Compound_Path_122" data-name="&lt;Compound Path&gt;" class="cls-3" d="M35.4,138.44l-24-41.54h48Zm-19-38.68,19,33,19-33Z" transform="translate(0 -22.91)"/></g><g id="_Group_170" data-name="&lt;Group&gt;"><path id="_Compound_Path_123" data-name="&lt;Compound Path&gt;" class="cls-3" d="M35.4,125.73,22.83,104H48Zm-7.62-18.92L35.4,120,43,106.81Z" transform="translate(0 -22.91)"/></g></g><g id="_Group_171" data-name="&lt;Group&gt;"><g id="_Group_172" data-name="&lt;Group&gt;"><path id="_Compound_Path_124" data-name="&lt;Compound Path&gt;" class="cls-3" d="M118.12,151.15l-35.4-61.3h70.8ZM87.66,92.7l30.46,52.75L148.57,92.7Z" transform="translate(0 -22.91)"/></g><g id="_Group_173" data-name="&lt;Group&gt;"><path id="_Compound_Path_125" data-name="&lt;Compound Path&gt;" class="cls-3" d="M118.12,138.44l-24-41.54h48Zm-19-38.68,19,33,19-33Z" transform="translate(0 -22.91)"/></g><g id="_Group_174" data-name="&lt;Group&gt;"><path id="_Compound_Path_126" data-name="&lt;Compound Path&gt;" class="cls-3" d="M118.12,125.73,105.55,104h25.14Zm-7.63-18.92L118.12,120l7.62-13.21Z" transform="translate(0 -22.91)"/></g></g><g id="_Group_175" data-name="&lt;Group&gt;"><g id="_Group_176" data-name="&lt;Group&gt;"><path id="_Compound_Path_127" data-name="&lt;Compound Path&gt;" class="cls-3" d="M200.84,151.15l-35.4-61.3h70.8ZM170.38,92.7l30.46,52.75L231.29,92.7Z" transform="translate(0 -22.91)"/></g><g id="_Group_177" data-name="&lt;Group&gt;"><path id="_Compound_Path_128" data-name="&lt;Compound Path&gt;" class="cls-3" d="M200.84,138.44l-24-41.54h48Zm-19-38.68,19,33,19-33Z" transform="translate(0 -22.91)"/></g><g id="_Group_178" data-name="&lt;Group&gt;"><path id="_Compound_Path_129" data-name="&lt;Compound Path&gt;" class="cls-3" d="M200.84,125.73,188.27,104H213.4Zm-7.63-18.92L200.84,120l7.62-13.21Z" transform="translate(0 -22.91)"/></g></g><g id="_Group_179" data-name="&lt;Group&gt;"><g id="_Group_180" data-name="&lt;Group&gt;"><path id="_Compound_Path_130" data-name="&lt;Compound Path&gt;" class="cls-3" d="M283.56,151.15l-35.4-61.3H319ZM253.1,92.7l30.46,52.75L314,92.7Z" transform="translate(0 -22.91)"/></g><g id="_Group_181" data-name="&lt;Group&gt;"><path id="_Compound_Path_131" data-name="&lt;Compound Path&gt;" class="cls-3" d="M283.56,138.44l-24-41.54h48Zm-19-38.68,19,33,19-33Z" transform="translate(0 -22.91)"/></g><g id="_Group_182" data-name="&lt;Group&gt;"><path id="_Compound_Path_132" data-name="&lt;Compound Path&gt;" class="cls-3" d="M283.56,125.73,271,104h25.13Zm-7.63-18.92L283.56,120l7.62-13.21Z" transform="translate(0 -22.91)"/></g></g><g id="_Group_183" data-name="&lt;Group&gt;"><g id="_Group_184" data-name="&lt;Group&gt;"><path id="_Compound_Path_133" data-name="&lt;Compound Path&gt;" class="cls-3" d="M366.28,151.15l-35.41-61.3h70.8ZM335.82,92.7l30.46,52.75L396.73,92.7Z" transform="translate(0 -22.91)"/></g><g id="_Group_185" data-name="&lt;Group&gt;"><path id="_Compound_Path_134" data-name="&lt;Compound Path&gt;" class="cls-3" d="M366.28,138.44l-24-41.54h48Zm-19-38.68,19,33,19-33Z" transform="translate(0 -22.91)"/></g><g id="_Group_186" data-name="&lt;Group&gt;"><path id="_Compound_Path_135" data-name="&lt;Compound Path&gt;" class="cls-3" d="M366.28,125.73,353.71,104h25.13Zm-7.63-18.92L366.28,120l7.62-13.21Z" transform="translate(0 -22.91)"/></g></g><g id="_Group_187" data-name="&lt;Group&gt;"><g id="_Group_188" data-name="&lt;Group&gt;"><path id="_Compound_Path_136" data-name="&lt;Compound Path&gt;" class="cls-3" d="M448.81,151.15l-35.4-61.3h70.8ZM418.36,92.7l30.45,52.75L479.27,92.7Z" transform="translate(0 -22.91)"/></g><g id="_Group_189" data-name="&lt;Group&gt;"><path id="_Compound_Path_137" data-name="&lt;Compound Path&gt;" class="cls-3" d="M448.81,138.44l-24-41.54h48Zm-19-38.68,19,33,19-33Z" transform="translate(0 -22.91)"/></g><g id="_Group_190" data-name="&lt;Group&gt;"><path id="_Compound_Path_138" data-name="&lt;Compound Path&gt;" class="cls-3" d="M448.81,125.73,436.24,104h25.14Zm-7.62-18.92L448.81,120l7.62-13.21Z" transform="translate(0 -22.91)"/></g></g><g id="_Group_191" data-name="&lt;Group&gt;"><g id="_Group_192" data-name="&lt;Group&gt;"><path id="_Compound_Path_139" data-name="&lt;Compound Path&gt;" class="cls-3" d="M531.53,151.15l-35.4-61.3h70.8ZM501.08,92.7l30.45,52.75L562,92.7Z" transform="translate(0 -22.91)"/></g><g id="_Group_193" data-name="&lt;Group&gt;"><path id="_Compound_Path_140" data-name="&lt;Compound Path&gt;" class="cls-3" d="M531.53,138.44l-24-41.54h48Zm-19-38.68,19,33,19-33Z" transform="translate(0 -22.91)"/></g><g id="_Group_194" data-name="&lt;Group&gt;"><path id="_Compound_Path_141" data-name="&lt;Compound Path&gt;" class="cls-3" d="M531.53,125.73,519,104H544.1Zm-7.62-18.92L531.53,120l7.62-13.21Z" transform="translate(0 -22.91)"/></g></g><g id="_Group_195" data-name="&lt;Group&gt;"><g id="_Group_196" data-name="&lt;Group&gt;"><path id="_Compound_Path_142" data-name="&lt;Compound Path&gt;" class="cls-3" d="M614.25,151.15l-35.4-61.3h70.8ZM583.8,92.7l30.45,52.75L644.7,92.7Z" transform="translate(0 -22.91)"/></g><g id="_Group_197" data-name="&lt;Group&gt;"><path id="_Compound_Path_143" data-name="&lt;Compound Path&gt;" class="cls-3" d="M614.25,138.44l-24-41.54h48Zm-19-38.68,19,33,19-33Z" transform="translate(0 -22.91)"/></g><g id="_Group_198" data-name="&lt;Group&gt;"><path id="_Compound_Path_144" data-name="&lt;Compound Path&gt;" class="cls-3" d="M614.25,125.73,601.68,104h25.14Zm-7.62-18.92L614.25,120l7.62-13.21Z" transform="translate(0 -22.91)"/></g></g></g><g id="_Group_199" data-name="&lt;Group&gt;"><g id="_Group_200" data-name="&lt;Group&gt;"><g id="_Group_201" data-name="&lt;Group&gt;"><path id="_Compound_Path_145" data-name="&lt;Compound Path&gt;" class="cls-4" d="M76.76,85.64,41.36,24.33h70.8ZM46.31,27.19,76.76,79.93l30.45-52.74Z" transform="translate(0 -22.91)"/></g><g id="_Group_202" data-name="&lt;Group&gt;"><path id="_Compound_Path_146" data-name="&lt;Compound Path&gt;" class="cls-4" d="M76.76,72.93l-24-41.54h48Zm-19-38.69,19,33,19-33Z" transform="translate(0 -22.91)"/></g><g id="_Group_203" data-name="&lt;Group&gt;"><path id="_Compound_Path_147" data-name="&lt;Compound Path&gt;" class="cls-4" d="M76.76,60.21,64.19,38.44H89.33ZM69.14,41.3l7.62,13.2,7.62-13.2Z" transform="translate(0 -22.91)"/></g></g><g id="_Group_204" data-name="&lt;Group&gt;"><g id="_Group_205" data-name="&lt;Group&gt;"><path id="_Compound_Path_148" data-name="&lt;Compound Path&gt;" class="cls-4" d="M159.48,85.64l-35.4-61.31h70.8ZM129,27.19l30.46,52.74,30.45-52.74Z" transform="translate(0 -22.91)"/></g><g id="_Group_206" data-name="&lt;Group&gt;"><path id="_Compound_Path_149" data-name="&lt;Compound Path&gt;" class="cls-4" d="M159.48,72.93l-24-41.54h48Zm-19-38.69,19,33,19-33Z" transform="translate(0 -22.91)"/></g><g id="_Group_207" data-name="&lt;Group&gt;"><path id="_Compound_Path_150" data-name="&lt;Compound Path&gt;" class="cls-4" d="M159.48,60.21,146.91,38.44h25.14ZM151.85,41.3l7.63,13.2,7.62-13.2Z" transform="translate(0 -22.91)"/></g></g><g id="_Group_208" data-name="&lt;Group&gt;"><g id="_Group_209" data-name="&lt;Group&gt;"><path id="_Compound_Path_151" data-name="&lt;Compound Path&gt;" class="cls-4" d="M242.2,85.64,206.8,24.33h70.8ZM211.74,27.19,242.2,79.93l30.45-52.74Z" transform="translate(0 -22.91)"/></g><g id="_Group_210" data-name="&lt;Group&gt;"><path id="_Compound_Path_152" data-name="&lt;Compound Path&gt;" class="cls-4" d="M242.2,72.93l-24-41.54h48Zm-19-38.69,19,33,19-33Z" transform="translate(0 -22.91)"/></g><g id="_Group_211" data-name="&lt;Group&gt;"><path id="_Compound_Path_153" data-name="&lt;Compound Path&gt;" class="cls-4" d="M242.2,60.21,229.63,38.44h25.13ZM234.57,41.3l7.63,13.2,7.62-13.2Z" transform="translate(0 -22.91)"/></g></g><g id="_Group_212" data-name="&lt;Group&gt;"><g id="_Group_213" data-name="&lt;Group&gt;"><path id="_Compound_Path_154" data-name="&lt;Compound Path&gt;" class="cls-4" d="M324.92,85.64l-35.4-61.31h70.79ZM294.46,27.19l30.46,52.74,30.45-52.74Z" transform="translate(0 -22.91)"/></g><g id="_Group_214" data-name="&lt;Group&gt;"><path id="_Compound_Path_155" data-name="&lt;Compound Path&gt;" class="cls-4" d="M324.92,72.93l-24-41.54h48Zm-19-38.69,19,33,19-33Z" transform="translate(0 -22.91)"/></g><g id="_Group_215" data-name="&lt;Group&gt;"><path id="_Compound_Path_156" data-name="&lt;Compound Path&gt;" class="cls-4" d="M324.92,60.21,312.35,38.44h25.13ZM317.29,41.3l7.63,13.2,7.62-13.2Z" transform="translate(0 -22.91)"/></g></g><g id="_Group_216" data-name="&lt;Group&gt;"><g id="_Group_217" data-name="&lt;Group&gt;"><path id="_Compound_Path_157" data-name="&lt;Compound Path&gt;" class="cls-4" d="M407.63,85.64l-35.4-61.31H443ZM377.18,27.19l30.45,52.74,30.46-52.74Z" transform="translate(0 -22.91)"/></g><g id="_Group_218" data-name="&lt;Group&gt;"><path id="_Compound_Path_158" data-name="&lt;Compound Path&gt;" class="cls-4" d="M407.63,72.93l-24-41.54h48Zm-19-38.69,19,33,19-33Z" transform="translate(0 -22.91)"/></g><g id="_Group_219" data-name="&lt;Group&gt;"><path id="_Compound_Path_159" data-name="&lt;Compound Path&gt;" class="cls-4" d="M407.63,60.21,395.07,38.44H420.2ZM400,41.3l7.62,13.2,7.63-13.2Z" transform="translate(0 -22.91)"/></g></g><g id="_Group_220" data-name="&lt;Group&gt;"><g id="_Group_221" data-name="&lt;Group&gt;"><path id="_Compound_Path_160" data-name="&lt;Compound Path&gt;" class="cls-4" d="M490.17,85.64l-35.4-61.31h70.8ZM459.72,27.19l30.45,52.74,30.46-52.74Z" transform="translate(0 -22.91)"/></g><g id="_Group_222" data-name="&lt;Group&gt;"><path id="_Compound_Path_161" data-name="&lt;Compound Path&gt;" class="cls-4" d="M490.17,72.93l-24-41.54h48Zm-19-38.69,19,33,19-33Z" transform="translate(0 -22.91)"/></g><g id="_Group_223" data-name="&lt;Group&gt;"><path id="_Compound_Path_162" data-name="&lt;Compound Path&gt;" class="cls-4" d="M490.17,60.21,477.6,38.44h25.14ZM482.55,41.3l7.62,13.2,7.62-13.2Z" transform="translate(0 -22.91)"/></g></g><g id="_Group_224" data-name="&lt;Group&gt;"><g id="_Group_225" data-name="&lt;Group&gt;"><path id="_Compound_Path_163" data-name="&lt;Compound Path&gt;" class="cls-4" d="M572.89,85.64l-35.4-61.31h70.8ZM542.44,27.19l30.45,52.74,30.45-52.74Z" transform="translate(0 -22.91)"/></g><g id="_Group_226" data-name="&lt;Group&gt;"><path id="_Compound_Path_164" data-name="&lt;Compound Path&gt;" class="cls-4" d="M572.89,72.93l-24-41.54h48Zm-19-38.69,19,33,19-33Z" transform="translate(0 -22.91)"/></g><g id="_Group_227" data-name="&lt;Group&gt;"><path id="_Compound_Path_165" data-name="&lt;Compound Path&gt;" class="cls-4" d="M572.89,60.21,560.32,38.44h25.14ZM565.27,41.3l7.62,13.2,7.62-13.2Z" transform="translate(0 -22.91)"/></g></g><g id="_Group_228" data-name="&lt;Group&gt;"><g id="_Group_229" data-name="&lt;Group&gt;"><path id="_Compound_Path_166" data-name="&lt;Compound Path&gt;" class="cls-4" d="M655.61,85.64l-35.4-61.31H691ZM625.16,27.19l30.45,52.74,30.45-52.74Z" transform="translate(0 -22.91)"/></g><g id="_Group_230" data-name="&lt;Group&gt;"><path id="_Compound_Path_167" data-name="&lt;Compound Path&gt;" class="cls-4" d="M655.61,72.93l-24-41.54h48Zm-19-38.69,19,33,19-33Z" transform="translate(0 -22.91)"/></g><g id="_Group_231" data-name="&lt;Group&gt;"><path id="_Compound_Path_168" data-name="&lt;Compound Path&gt;" class="cls-4" d="M655.61,60.21,643,38.44h25.14ZM648,41.3l7.62,13.2,7.62-13.2Z" transform="translate(0 -22.91)"/></g></g><g id="_Group_232" data-name="&lt;Group&gt;"><g id="_Group_233" data-name="&lt;Group&gt;"><path id="_Compound_Path_169" data-name="&lt;Compound Path&gt;" class="cls-4" d="M112.16,149.73H41.36l35.4-61.31Zm-65.85-2.86h60.9L76.76,94.13Z" transform="translate(0 -22.91)"/></g><g id="_Group_234" data-name="&lt;Group&gt;"><path id="_Compound_Path_170" data-name="&lt;Compound Path&gt;" class="cls-4" d="M100.74,142.67h-48l24-41.53Zm-43-2.85H95.8l-19-33Z" transform="translate(0 -22.91)"/></g><g id="_Group_235" data-name="&lt;Group&gt;"><path id="_Compound_Path_171" data-name="&lt;Compound Path&gt;" class="cls-4" d="M89.33,135.62H64.19l12.57-21.77Zm-20.19-2.86H84.38l-7.62-13.2Z" transform="translate(0 -22.91)"/></g></g><g id="_Group_236" data-name="&lt;Group&gt;"><g id="_Group_237" data-name="&lt;Group&gt;"><path id="_Compound_Path_172" data-name="&lt;Compound Path&gt;" class="cls-4" d="M194.88,149.73h-70.8l35.4-61.31ZM129,146.87h60.91L159.48,94.13Z" transform="translate(0 -22.91)"/></g><g id="_Group_238" data-name="&lt;Group&gt;"><path id="_Compound_Path_173" data-name="&lt;Compound Path&gt;" class="cls-4" d="M183.46,142.67h-48l24-41.53Zm-43-2.85h38.08l-19-33Z" transform="translate(0 -22.91)"/></g><g id="_Group_239" data-name="&lt;Group&gt;"><path id="_Compound_Path_174" data-name="&lt;Compound Path&gt;" class="cls-4" d="M172.05,135.62H146.91l12.57-21.77Zm-20.2-2.86H167.1l-7.62-13.2Z" transform="translate(0 -22.91)"/></g></g><g id="_Group_240" data-name="&lt;Group&gt;"><g id="_Group_241" data-name="&lt;Group&gt;"><path id="_Compound_Path_175" data-name="&lt;Compound Path&gt;" class="cls-4" d="M277.6,149.73H206.8l35.4-61.31Zm-65.86-2.86h60.91L242.2,94.13Z" transform="translate(0 -22.91)"/></g><g id="_Group_242" data-name="&lt;Group&gt;"><path id="_Compound_Path_176" data-name="&lt;Compound Path&gt;" class="cls-4" d="M266.18,142.67h-48l24-41.53Zm-43-2.85h38.07l-19-33Z" transform="translate(0 -22.91)"/></g><g id="_Group_243" data-name="&lt;Group&gt;"><path id="_Compound_Path_177" data-name="&lt;Compound Path&gt;" class="cls-4" d="M254.76,135.62H229.63l12.57-21.77Zm-20.19-2.86h15.25l-7.62-13.2Z" transform="translate(0 -22.91)"/></g></g><g id="_Group_244" data-name="&lt;Group&gt;"><g id="_Group_245" data-name="&lt;Group&gt;"><path id="_Compound_Path_178" data-name="&lt;Compound Path&gt;" class="cls-4" d="M360.31,149.73H289.52l35.4-61.31Zm-65.85-2.86h60.91L324.92,94.13Z" transform="translate(0 -22.91)"/></g><g id="_Group_246" data-name="&lt;Group&gt;"><path id="_Compound_Path_179" data-name="&lt;Compound Path&gt;" class="cls-4" d="M348.9,142.67h-48l24-41.53Zm-43-2.85H344l-19-33Z" transform="translate(0 -22.91)"/></g><g id="_Group_247" data-name="&lt;Group&gt;"><path id="_Compound_Path_180" data-name="&lt;Compound Path&gt;" class="cls-4" d="M337.48,135.62H312.35l12.57-21.77Zm-20.19-2.86h15.25l-7.62-13.2Z" transform="translate(0 -22.91)"/></g></g><g id="_Group_248" data-name="&lt;Group&gt;"><g id="_Group_249" data-name="&lt;Group&gt;"><path id="_Compound_Path_181" data-name="&lt;Compound Path&gt;" class="cls-4" d="M442.85,149.73h-70.8l35.4-61.31ZM377,146.87h60.91L407.45,94.13Z" transform="translate(0 -22.91)"/></g><g id="_Group_250" data-name="&lt;Group&gt;"><path id="_Compound_Path_182" data-name="&lt;Compound Path&gt;" class="cls-4" d="M431.44,142.67h-48l24-41.53Zm-43-2.85h38.08l-19-33Z" transform="translate(0 -22.91)"/></g><g id="_Group_251" data-name="&lt;Group&gt;"><path id="_Compound_Path_183" data-name="&lt;Compound Path&gt;" class="cls-4" d="M420,135.62H394.88l12.57-21.77Zm-20.19-2.86h15.24l-7.62-13.2Z" transform="translate(0 -22.91)"/></g></g><g id="_Group_252" data-name="&lt;Group&gt;"><g id="_Group_253" data-name="&lt;Group&gt;"><path id="_Compound_Path_184" data-name="&lt;Compound Path&gt;" class="cls-4" d="M525.57,149.73h-70.8l35.4-61.31Zm-65.85-2.86h60.91L490.17,94.13Z" transform="translate(0 -22.91)"/></g><g id="_Group_254" data-name="&lt;Group&gt;"><path id="_Compound_Path_185" data-name="&lt;Compound Path&gt;" class="cls-4" d="M514.16,142.67h-48l24-41.53Zm-43-2.85h38.08l-19-33Z" transform="translate(0 -22.91)"/></g><g id="_Group_255" data-name="&lt;Group&gt;"><path id="_Compound_Path_186" data-name="&lt;Compound Path&gt;" class="cls-4" d="M502.74,135.62H477.6l12.57-21.77Zm-20.19-2.86h15.24l-7.62-13.2Z" transform="translate(0 -22.91)"/></g></g><g id="_Group_256" data-name="&lt;Group&gt;"><g id="_Group_257" data-name="&lt;Group&gt;"><path id="_Compound_Path_187" data-name="&lt;Compound Path&gt;" class="cls-4" d="M608.29,149.73h-70.8l35.4-61.31Zm-65.85-2.86h60.9L572.89,94.13Z" transform="translate(0 -22.91)"/></g><g id="_Group_258" data-name="&lt;Group&gt;"><path id="_Compound_Path_188" data-name="&lt;Compound Path&gt;" class="cls-4" d="M596.87,142.67h-48l24-41.53Zm-43-2.85h38.08l-19-33Z" transform="translate(0 -22.91)"/></g><g id="_Group_259" data-name="&lt;Group&gt;"><path id="_Compound_Path_189" data-name="&lt;Compound Path&gt;" class="cls-4" d="M585.46,135.62H560.32l12.57-21.77Zm-20.19-2.86h15.24l-7.62-13.2Z" transform="translate(0 -22.91)"/></g></g><g id="_Group_260" data-name="&lt;Group&gt;"><g id="_Group_261" data-name="&lt;Group&gt;"><path id="_Compound_Path_190" data-name="&lt;Compound Path&gt;" class="cls-4" d="M691,149.73h-70.8l35.4-61.31Zm-65.85-2.86h60.9L655.61,94.13Z" transform="translate(0 -22.91)"/></g><g id="_Group_262" data-name="&lt;Group&gt;"><path id="_Compound_Path_191" data-name="&lt;Compound Path&gt;" class="cls-4" d="M679.59,142.67h-48l24-41.53Zm-43-2.85h38.08l-19-33Z" transform="translate(0 -22.91)"/></g><g id="_Group_263" data-name="&lt;Group&gt;"><path id="_Compound_Path_192" data-name="&lt;Compound Path&gt;" class="cls-4" d="M668.18,135.62H643l12.57-21.77ZM648,132.76h15.24l-7.62-13.2Z" transform="translate(0 -22.91)"/></g></g></g></g></g></g></g></g></g></svg>